<svg width="50" height="70" viewBox="0 0 50 70" fill="none" xmlns="http://www.w3.org/2000/svg">
<g id="Frame" clip-path="url(#clip0_524_1864)">
<path id="Vector" d="M47.8724 0H1.71663C0.767368 0 0 0.757636 0 1.69486V68.3107C0 69.248 0.767368 70.0056 1.71663 70.0056H47.8724C48.8217 70.0056 49.589 69.248 49.589 68.3107V1.69486C49.5834 0.757636 48.816 0 47.8724 0Z" fill="url(#paint0_linear_524_1864)"/>
<path id="Vector_2" d="M44.8428 3.01929H4.74074C3.8199 3.01929 3.06958 3.76009 3.06958 4.67486V59.7522C3.06958 60.667 3.8199 61.4022 4.74074 61.4022H44.8428C45.7694 61.4022 46.514 60.6614 46.514 59.7522V4.67486C46.514 3.76009 45.7694 3.01929 44.8428 3.01929Z" fill="white"/>
<g id="Group">
<path id="Vector_3" d="M32.991 29.2056H16.5978C15.8475 29.2056 15.2393 28.6051 15.2393 27.8643V11.6733C15.2393 10.9325 15.8475 10.332 16.5978 10.332H32.991C33.7413 10.332 34.3496 10.9325 34.3496 11.6733V27.8587C34.3496 28.5995 33.7413 29.2056 32.991 29.2056Z" fill="url(#paint1_linear_524_1864)"/>
</g>
<g id="Group_2">
<path id="Vector_4" d="M24.7945 68.1928C26.1884 68.1928 27.3183 67.0772 27.3183 65.701C27.3183 64.3248 26.1884 63.2092 24.7945 63.2092C23.4007 63.2092 22.2708 64.3248 22.2708 65.701C22.2708 67.0772 23.4007 68.1928 24.7945 68.1928Z" fill="white"/>
</g>
<path id="Vector_5" d="M39.079 37.5901H10.5045C9.78256 37.5901 9.19141 37.0065 9.19141 36.2937C9.19141 35.581 9.78256 34.9973 10.5045 34.9973H39.0733C39.7952 34.9973 40.3863 35.581 40.3863 36.2937C40.3863 37.0065 39.8009 37.5901 39.079 37.5901Z" fill="url(#paint2_linear_524_1864)"/>
<path id="Vector_6" opacity="0.6" d="M34.2416 44.7735H10.0269C9.56649 44.7735 9.19702 44.4031 9.19702 43.9541V43.8643C9.19702 43.4097 9.57218 43.0449 10.0269 43.0449H34.2416C34.7021 43.0449 35.0715 43.4153 35.0715 43.8643V43.9541C35.0772 44.4031 34.7021 44.7735 34.2416 44.7735Z" fill="url(#paint3_linear_524_1864)"/>
<path id="Vector_7" opacity="0.3" d="M29.6318 49.3362H9.94741C9.53246 49.3362 9.19141 48.9995 9.19141 48.5898V48.3429C9.19141 47.9332 9.53246 47.5964 9.94741 47.5964H29.6261C30.0411 47.5964 30.3821 47.9332 30.3821 48.3429V48.5898C30.3821 48.9995 30.0411 49.3362 29.6318 49.3362Z" fill="url(#paint4_linear_524_1864)"/>
<path id="Vector_8" opacity="0.6" d="M32.1101 53.562H9.99281C9.55513 53.562 9.19702 53.2085 9.19702 52.7763V52.6192C9.19702 52.1871 9.55513 51.8335 9.99281 51.8335H32.1101C32.5477 51.8335 32.9059 52.1871 32.9059 52.6192V52.7763C32.9059 53.2028 32.5477 53.562 32.1101 53.562Z" fill="url(#paint5_linear_524_1864)"/>
<path id="Vector_9" d="M24.8437 19.2469C26.4851 19.2469 27.8156 17.9157 27.8156 16.2735C27.8156 14.6313 26.4851 13.3 24.8437 13.3C23.2023 13.3 21.8718 14.6313 21.8718 16.2735C21.8718 17.9157 23.1961 19.2469 24.8437 19.2469ZM24.8437 20.7337C22.8603 20.7337 18.8999 21.729 18.8999 23.7071V24.4536C18.8999 24.8641 19.2356 25.2 19.646 25.2H30.0538C30.4642 25.2 30.7999 24.8641 30.7999 24.4536V23.7071C30.7875 21.7352 26.827 20.7337 24.8437 20.7337Z" fill="white"/>
</g>
<defs>
<linearGradient id="paint0_linear_524_1864" x1="3.00409" y1="33.1801" x2="49.6223" y2="37.1765" gradientUnits="userSpaceOnUse">
<stop stop-color="#6CBCFC"/>
<stop offset="1" stop-color="#458DFC"/>
</linearGradient>
<linearGradient id="paint1_linear_524_1864" x1="13.7573" y1="14.2155" x2="35.7113" y2="25.5453" gradientUnits="userSpaceOnUse">
<stop stop-color="#B0F4FF"/>
<stop offset="0.0856277" stop-color="#A3F0FE"/>
<stop offset="0.2972" stop-color="#8AE7FD"/>
<stop offset="0.5161" stop-color="#77E1FD"/>
<stop offset="0.7451" stop-color="#6DDDFC"/>
<stop offset="1" stop-color="#69DCFC"/>
</linearGradient>
<linearGradient id="paint2_linear_524_1864" x1="40.3891" y1="36.2948" x2="9.19677" y2="36.2948" gradientUnits="userSpaceOnUse">
<stop stop-color="#6CBCFC"/>
<stop offset="1" stop-color="#458DFC"/>
</linearGradient>
<linearGradient id="paint3_linear_524_1864" x1="35.0756" y1="43.9067" x2="9.1967" y2="43.9067" gradientUnits="userSpaceOnUse">
<stop stop-color="#6CBCFC"/>
<stop offset="1" stop-color="#458DFC"/>
</linearGradient>
<linearGradient id="paint4_linear_524_1864" x1="30.3827" y1="48.4694" x2="9.19677" y2="48.4694" gradientUnits="userSpaceOnUse">
<stop stop-color="#6CBCFC"/>
<stop offset="1" stop-color="#458DFC"/>
</linearGradient>
<linearGradient id="paint5_linear_524_1864" x1="32.9054" y1="52.6933" x2="9.1967" y2="52.6933" gradientUnits="userSpaceOnUse">
<stop stop-color="#6CBCFC"/>
<stop offset="1" stop-color="#458DFC"/>
</linearGradient>
<clipPath id="clip0_524_1864">
<rect width="49.5834" height="70" fill="white"/>
</clipPath>
</defs>
</svg>
