<svg width="32" height="20" viewBox="0 0 32 20" fill="none" xmlns="http://www.w3.org/2000/svg">
<path d="M9.4375 7.5625C9.39062 8.59375 9.95312 9.0625 9.95312 9.39062C9.95312 9.48438 9.85938 9.625 9.76562 9.67188L9.15625 10.0938C9.0625 10.1406 8.96875 10.1875 8.875 10.1875C8.875 10.1875 8.5 10.2812 7.9375 8.96875C7.23438 9.85938 6.10938 10.375 4.98438 10.375C4.23438 10.375 2.17188 9.90625 2.26562 7.70312C2.17188 5.92188 3.85938 4.79688 5.59375 4.89062C5.92188 4.89062 6.625 4.9375 7.79688 5.21875V4.46875C7.9375 3.20312 7.09375 2.26562 5.6875 2.40625C5.59375 2.40625 4.79688 2.40625 3.53125 2.875C3.20312 3.0625 3.15625 3.01562 3.0625 3.01562C2.6875 3.01562 2.82812 1.98438 2.92188 1.89062C3.15625 1.5625 4.5625 1 6.01562 1.04688C6.95312 0.953125 7.89062 1.23438 8.59375 1.84375C9.20312 2.5 9.48438 3.39062 9.4375 4.28125V7.5625ZM5.35938 9.0625C6.90625 9.01562 7.5625 8.125 7.70312 7.60938C7.79688 7.14062 7.79688 6.85938 7.79688 6.34375C7.32812 6.25 6.67188 6.10938 5.92188 6.10938C5.21875 6.0625 3.90625 6.39062 4 7.60938C3.90625 8.40625 4.51562 9.10938 5.35938 9.0625ZM13.375 10.1406C13.0469 10.1875 12.8594 9.90625 12.8125 9.67188L10.4688 1.9375C10.4219 1.79688 10.375 1.65625 10.375 1.51562C10.375 1.42188 10.4219 1.28125 10.5625 1.28125C10.5625 1.28125 10.4688 1.28125 11.5938 1.28125C12.0156 1.23438 12.1562 1.5625 12.2031 1.75L13.8438 8.35938L15.4375 1.75C15.4375 1.60938 15.5312 1.23438 16 1.28125H16.8438C16.9375 1.28125 17.3594 1.28125 17.4062 1.79688L19 8.45312L20.6875 1.79688C20.7344 1.65625 20.8281 1.23438 21.2969 1.28125H22.2344C22.2812 1.28125 22.5156 1.23438 22.4688 1.70312C22.4688 1.79688 22.6562 1.1875 19.9844 9.67188C19.9375 9.90625 19.7969 10.1875 19.4219 10.1406H18.5312C18.0156 10.1875 17.9688 9.67188 17.9219 9.625L16.375 3.20312L14.8281 9.625C14.8281 9.67188 14.7812 10.1875 14.2656 10.1406H13.375ZM26.2188 10.4219C25.9375 10.4219 24.625 10.375 23.5469 9.8125C23.3125 9.71875 23.1719 9.53125 23.1719 9.25V8.78125C23.1719 8.35938 23.4531 8.45312 23.5938 8.5C24.0625 8.6875 24.3438 8.82812 24.9062 8.92188C26.6406 9.29688 27.3906 8.82812 27.5781 8.73438C28.1875 8.35938 28.2344 7.51562 27.8125 7.09375C27.3438 6.67188 27.1094 6.67188 25.3281 6.10938C25.1406 6.0625 23.3125 5.45312 23.2656 3.67188C23.2656 2.3125 24.4375 1 26.5469 1.04688C27.1562 1.04688 28.7031 1.23438 29.1719 1.75C29.2188 1.84375 29.2656 1.98438 29.2188 2.07812V2.54688C29.2188 2.78125 29.1719 2.875 29.0312 2.875C28.6562 2.82812 28 2.35938 26.6875 2.35938C26.4062 2.35938 24.8594 2.40625 24.9062 3.53125C24.9062 4.42188 26.1719 4.75 26.3125 4.79688C28 5.3125 28.5625 5.40625 29.2656 6.20312C30.0625 7.23438 29.6406 8.45312 29.4531 8.78125C28.5625 10.5625 26.2656 10.4219 26.2188 10.4219ZM28.0938 15.2969C24.8125 17.7344 20.0312 19.0469 16 19.0469C10.4688 19.0469 5.17188 17.0312 1.09375 13.375C0.8125 13.0938 1.09375 12.7188 1.46875 12.9062C5.96875 15.5312 11.0781 16.8906 16.2812 16.8906C20.1719 16.8438 24.0156 16.0469 27.625 14.5469C28.1875 14.3125 28.6562 14.9219 28.0938 15.2969ZM29.4531 13.75C29.0312 13.2344 26.6875 13.5156 25.6094 13.6094C25.3281 13.6562 25.2812 13.375 25.5625 13.1875C27.4375 11.875 30.5312 12.25 30.8594 12.6719C31.2344 13.1406 30.7656 16.2344 29.0312 17.6875C28.75 17.9219 28.4688 17.8281 28.6094 17.5C28.9844 16.5156 29.875 14.3125 29.4531 13.75Z" fill="#6B6D6F"/>
</svg>
