<svg width="88" height="88" viewBox="0 0 88 88" fill="none" xmlns="http://www.w3.org/2000/svg">
<path d="M33.2326 11.07C36.3226 14.16 37.5126 18.68 36.3226 22.89C40.1326 20.6 44.4926 19.4 48.9326 19.4H49.0226C55.5526 19.42 61.8026 22.04 66.3926 26.68C70.0726 30.55 76.1926 30.7 80.0526 27.02C83.9226 23.34 84.0726 17.22 80.3926 13.36C80.3026 13.26 80.2026 13.17 80.1026 13.07C71.9026 4.77999 60.7326 0.0999943 49.0726 0.0799943H48.9026C40.1726 0.0599943 31.6426 2.66 24.4026 7.54H24.6726C27.8826 7.54 30.9526 8.81 33.2226 11.08L33.2326 11.07Z" fill="#6B6D6F"/>
<path d="M73.0826 58.67C70.5326 58.67 68.0826 59.68 66.2726 61.47C61.6726 66.05 55.4426 68.62 48.9426 68.62H48.8526C44.4026 68.62 40.0326 67.39 36.2326 65.07C36.5226 66.12 36.6626 67.21 36.6626 68.3C36.6626 74.97 31.2526 80.38 24.5826 80.38H24.2626C31.4926 85.3 40.0326 87.95 48.7826 87.96H48.9526C60.5526 87.98 71.6826 83.39 79.8926 75.2C83.6826 71.44 83.7026 65.32 79.9526 61.53C78.1426 59.7 75.6626 58.67 73.0926 58.67H73.0826Z" fill="#6B6D6F"/>
<path d="M16.0326 59.75C18.2926 57.48 21.3726 56.2 24.5826 56.21C25.6926 56.21 26.7926 56.36 27.8526 56.66C23.1526 48.85 23.1726 39.08 27.9026 31.29C21.4626 33.06 14.8126 29.27 13.0426 22.83C12.7526 21.78 12.6126 20.7 12.6126 19.62V19.29C2.50262 34.14 2.46262 53.65 12.4926 68.55V68.3C12.4926 65.09 13.7526 62.02 16.0326 59.75Z" fill="#6B6D6F"/>
<path d="M24.6926 9.68C21.9426 9.68 20.0226 10.82 17.6926 13.15C15.4726 15.37 14.7726 17.31 14.7626 19.62C14.7626 25.11 19.2126 29.55 24.7026 29.55C30.1926 29.55 34.6326 25.1 34.6326 19.61C34.6326 14.13 30.1826 9.68 24.7026 9.68H24.6926Z" fill="#6B6D6F"/>
<path d="M14.6226 68.31C14.6226 71.05 15.7626 72.98 18.0926 75.31C20.3126 77.53 22.2526 78.24 24.5626 78.24C30.0326 78.22 34.4526 73.78 34.4326 68.31C34.4126 62.84 29.9726 58.42 24.5026 58.44C19.0426 58.46 14.6326 62.88 14.6326 68.34V68.31H14.6226Z" fill="#6B6D6F"/>
</svg>
