<svg width="31" height="22" viewBox="0 0 31 22" fill="none" xmlns="http://www.w3.org/2000/svg">
<path d="M17.3594 10.1094V7.29688H14.2656V10.1094H17.3594ZM17.3594 0.5V3.35938H14.2656V0.5H17.3594ZM21.0625 7.29688V10.1094H17.9688V7.29688H21.0625ZM13.7031 3.92188V6.73438H10.6094V3.92188H13.7031ZM17.3594 3.92188V6.73438H14.2656V3.92188H17.3594ZM30.3438 8.60938L31 9.03125C30.9062 9.21875 30.6719 9.73438 30.5781 9.82812C29.4531 11.9375 27.2969 11.9844 26.3125 11.9375C23.7344 18.125 18.2969 21.5469 10.8906 21.5469C7.51562 21.5469 4.89062 20.4688 3.15625 18.4062C1.375 16.2969 0.671875 13.2031 1.09375 10.8125H21.4844C22.5156 10.8594 23.3125 10.5312 23.7344 10.3438C22.7969 8.89062 23.0312 6.78125 23.9219 5.46875L24.3438 4.8125L25 5.23438C26.125 6.125 26.7812 7.10938 26.9219 8.23438C28.1406 8 29.6875 8.14062 30.3438 8.60938ZM6.39062 7.29688V10.1094H3.29688V7.29688H6.39062ZM10.0469 7.29688V10.1094H6.95312V7.29688H10.0469ZM13.7031 7.29688V10.1094H10.6094V7.29688H13.7031ZM10.0469 3.92188V6.73438H6.95312V3.92188H10.0469Z" fill="#6B6D6F"/>
</svg>
