<svg width="24" height="24" viewBox="0 0 24 24" fill="none" xmlns="http://www.w3.org/2000/svg">
<path d="M12.0005 0.00598145C5.3255 0.00598145 0.00650024 5.32498 0.00650024 11.999C0.00650024 18.673 5.3255 23.994 11.9995 23.994C18.6735 23.994 23.9935 18.675 23.9935 12C23.9935 5.32498 18.6755 0.00598145 12.0005 0.00598145ZM2.6135 12.104L11.8965 21.387C6.7855 21.387 2.6135 17.215 2.6135 12.104ZM14.0865 21.178L2.8225 9.91398C3.7595 5.74198 7.5155 2.61298 11.9995 2.61298C13.4821 2.61588 14.9434 2.96663 16.2658 3.63703C17.5882 4.30744 18.7348 5.27879 19.6135 6.47298L18.2585 7.61898C17.5519 6.58484 16.6023 5.73984 15.4931 5.15805C14.384 4.57626 13.149 4.27544 11.8965 4.28198C10.3126 4.27181 8.76562 4.75969 7.47415 5.67666C6.18268 6.59363 5.21206 7.89331 4.6995 9.39198L14.5035 19.197C16.9035 18.362 18.7795 16.277 19.3015 13.773H15.2335V12H21.3875C21.3875 16.485 18.2585 20.24 14.0865 21.178Z" fill="#6B6D6F"/>
</svg>
