<svg width="32" height="32" viewBox="0 0 32 32" fill="none" xmlns="http://www.w3.org/2000/svg">
<path fill-rule="evenodd" clip-rule="evenodd" d="M16 2.20898L27.9434 9.10448V22.8955L16 29.791L4.05664 22.8955V9.10448L16 2.20898ZM5.3967 9.87818V20.008L14.1694 4.81325L5.3967 9.87818ZM16 4.32275L5.8872 21.8386H26.1128L16 4.32275ZM24.7727 23.1787H7.22726L16 28.2436L24.7727 23.1787ZM26.6033 20.008L17.8306 4.81325L26.6033 9.87818V20.008Z" fill="#6B6D6F"/>
<path d="M16 5.80508C17.5588 5.80508 18.8224 4.54145 18.8224 2.98268C18.8224 1.42391 17.5588 0.160278 16 0.160278C14.4412 0.160278 13.1776 1.42391 13.1776 2.98268C13.1776 4.54145 14.4412 5.80508 16 5.80508Z" fill="#6B6D6F"/>
<path d="M27.2733 12.3137C28.8321 12.3137 30.0957 11.0501 30.0957 9.49135C30.0957 7.93258 28.8321 6.66895 27.2733 6.66895C25.7146 6.66895 24.4509 7.93258 24.4509 9.49135C24.4509 11.0501 25.7146 12.3137 27.2733 12.3137Z" fill="#6B6D6F"/>
<path d="M27.2733 25.3311C28.8321 25.3311 30.0957 24.0674 30.0957 22.5087C30.0957 20.9499 28.8321 19.6863 27.2733 19.6863C25.7146 19.6863 24.4509 20.9499 24.4509 22.5087C24.4509 24.0674 25.7146 25.3311 27.2733 25.3311Z" fill="#6B6D6F"/>
<path d="M16 31.8397C17.5588 31.8397 18.8224 30.5761 18.8224 29.0173C18.8224 27.4586 17.5588 26.1949 16 26.1949C14.4412 26.1949 13.1776 27.4586 13.1776 29.0173C13.1776 30.5761 14.4412 31.8397 16 31.8397Z" fill="#6B6D6F"/>
<path d="M4.72511 25.3311C6.28388 25.3311 7.54751 24.0674 7.54751 22.5087C7.54751 20.9499 6.28388 19.6863 4.72511 19.6863C3.16634 19.6863 1.90271 20.9499 1.90271 22.5087C1.90271 24.0674 3.16634 25.3311 4.72511 25.3311Z" fill="#6B6D6F"/>
<path d="M4.72511 12.3137C6.28388 12.3137 7.54751 11.0501 7.54751 9.49135C7.54751 7.93258 6.28388 6.66895 4.72511 6.66895C3.16634 6.66895 1.90271 7.93258 1.90271 9.49135C1.90271 11.0501 3.16634 12.3137 4.72511 12.3137Z" fill="#6B6D6F"/>
</svg>
