<svg width="18" height="22" viewBox="0 0 18 22" fill="none" xmlns="http://www.w3.org/2000/svg">
<path d="M14.9062 11.6094C14.9062 11.7031 14.7656 14.4688 17.8125 15.9219C17.25 17.6562 15.2812 21.5 12.9844 21.5C11.6719 21.5 10.9219 20.6562 9.42188 20.6562C7.875 20.6562 7.03125 21.5 5.85938 21.5C3.60938 21.5938 1.45312 17.375 0.84375 15.6406C0.375 14.3281 0.1875 13.0625 0.1875 11.8438C0.1875 7.67188 2.95312 5.65625 5.57812 5.60938C6.84375 5.60938 8.4375 6.5 9.14062 6.5C9.79688 6.5 11.625 5.42188 13.3125 5.5625C15.0469 5.70312 16.3594 6.35938 17.25 7.625C15.7031 8.60938 14.9062 9.875 14.9062 11.6094ZM12.2812 3.92188C11.3438 5 10.2188 5.60938 9 5.51562C8.90625 4.25 9.375 3.07812 10.2188 2.14062C10.9688 1.29688 12.2812 0.59375 13.4062 0.5C13.4062 1.01562 13.5469 2.42188 12.2812 3.92188Z" fill="#6B6D6F"/>
</svg>
