<svg width="30" height="20" viewBox="0 0 30 20" fill="none" xmlns="http://www.w3.org/2000/svg">
<path d="M14.8125 19.1875C14.9062 19.1875 15 19.1875 15.0938 19.1406L17.8125 17.5469C17.9531 17.4531 18.0938 17.2656 18.0938 17.0781V13.9375C18.0938 13.75 17.9531 13.5625 17.8125 13.4688L15.0938 11.875C14.9062 11.7812 14.6719 11.7812 14.5312 11.875L11.8125 13.4688C11.625 13.5625 11.5312 13.75 11.5312 13.9375V17.0781C11.5312 17.2656 11.625 17.4531 11.8125 17.5469L12.5156 17.9688C12.8438 18.1562 12.9844 18.1562 13.125 18.1562C13.6406 18.1562 13.9688 17.8281 13.9688 17.3125V14.2188C13.9688 14.1719 13.9219 14.125 13.875 14.125H13.5469C13.5 14.125 13.4531 14.1719 13.4531 14.2188V17.3125C13.4531 17.5469 13.2188 17.7812 12.7969 17.5469L12.0469 17.125L12 17.0781V13.9375L12.0469 13.8906L14.7656 12.2969C14.8125 12.2969 14.8125 12.2969 14.8594 12.2969L17.5781 13.8906C17.5781 13.8906 17.5781 13.8906 17.5781 13.9375V17.0781C17.5781 17.125 17.5781 17.125 17.5781 17.125L14.8594 18.7188C14.8125 18.7188 14.7656 18.7188 14.7656 18.7188L14.0625 18.2969H14.0156C13.8281 18.3906 13.7812 18.4375 13.5938 18.4844C13.5469 18.4844 13.5 18.5312 13.6406 18.5781L14.5312 19.1406C14.625 19.1875 14.7188 19.1875 14.8125 19.1875ZM17.0156 16.1406C17.0156 16.7031 16.5 17.0312 15.6562 17.0312C14.4375 17.0312 14.2031 16.5156 14.2031 16.0469C14.2031 16 14.25 15.9531 14.2969 15.9531H14.625C14.6719 15.9531 14.7188 16 14.7188 16.0469C14.7656 16.375 14.9062 16.5625 15.6562 16.5625C16.2188 16.5625 16.4531 16.4688 16.4531 16.1406C16.4531 15.9531 16.4062 15.8594 15.5156 15.7656C14.7656 15.6719 14.2969 15.5312 14.2969 14.9219C14.2969 14.3594 14.7656 14.0312 15.5156 14.0312C16.4062 14.0312 16.8281 14.3594 16.875 15.0156V15.0625C16.8281 15.0625 16.8281 15.0625 16.8281 15.0625H16.4531C16.4062 15.0625 16.4062 15.0625 16.3594 15.0156C16.3125 14.6406 16.0781 14.5469 15.5156 14.5469C14.9062 14.5469 14.8594 14.7344 14.8594 14.9219C14.8594 15.1094 14.9062 15.1562 15.75 15.25C16.5938 15.3906 17.0156 15.5312 17.0156 16.1406ZM19.5469 13.7969C19.5469 13.4688 19.3125 13.2344 19.0312 13.2344C18.75 13.2344 18.5156 13.4688 18.5156 13.7969C18.5156 14.0781 18.75 14.3125 19.0312 14.3125C19.3125 14.3125 19.5469 14.0781 19.5469 13.7969ZM19.4531 13.7969C19.4531 14.0312 19.2656 14.2188 19.0312 14.2188C18.7969 14.2188 18.6094 14.0312 18.6094 13.7969C18.6094 13.5156 18.7969 13.3281 19.0312 13.3281C19.2656 13.3281 19.4531 13.5156 19.4531 13.7969ZM19.2656 14.0781C19.2188 14.0312 19.2188 13.9375 19.2188 13.8906C19.2188 13.8438 19.2188 13.7969 19.125 13.7969C19.1719 13.75 19.2188 13.75 19.2188 13.6562C19.2188 13.4688 19.125 13.4688 19.0312 13.4688H18.8438V14.0781H18.9375V13.8438H19.0312C19.0781 13.8438 19.0781 13.8438 19.125 13.8906C19.125 13.8906 19.125 14.0312 19.125 14.0781H19.2656ZM19.125 13.6562C19.125 13.7031 19.125 13.75 19.0312 13.75H18.9375V13.5625H19.0312C19.0781 13.5625 19.125 13.5625 19.125 13.6562ZM6.42188 6.95312V11.4062C6.42188 11.5 6.375 11.5469 6.32812 11.5938C6.28125 11.5938 6.1875 11.5938 6.14062 11.5938L4.45312 10.6094C4.3125 10.5156 4.26562 10.4219 4.26562 10.2812V8.21875C4.26562 8.07812 4.21875 7.98438 4.07812 7.9375L3.375 7.51562C3.32812 7.46875 3.23438 7.46875 3.1875 7.46875C3.14062 7.46875 3.09375 7.46875 3 7.51562L2.29688 7.9375C2.20312 7.98438 2.10938 8.07812 2.10938 8.21875V10.2812C2.10938 10.4219 2.0625 10.5156 1.96875 10.6094L0.234375 11.5938C0.1875 11.5938 0.140625 11.5938 0.046875 11.5938C0 11.5469 0 11.5 0 11.4062V6.95312C0 6.85938 0.046875 6.71875 0.140625 6.67188L3 5.03125C3.09375 4.98438 3.14062 4.98438 3.1875 4.98438C3.28125 4.98438 3.32812 4.98438 3.375 5.03125L6.23438 6.67188C6.32812 6.71875 6.42188 6.85938 6.42188 6.95312ZM22.125 2.125C22.125 1.98438 22.0781 1.89062 21.9375 1.79688L20.25 0.859375C20.1094 0.8125 19.9688 0.859375 19.9688 1V5.40625C19.9688 5.5 19.875 5.54688 19.7812 5.5L19.0781 5.125C18.9844 5.03125 18.8438 5.03125 18.75 5.125L15.8438 6.76562C15.75 6.8125 15.7031 6.95312 15.7031 7.04688V10.375C15.7031 10.5156 15.75 10.6094 15.8438 10.7031L18.75 12.3438C18.8438 12.3906 18.9844 12.3906 19.0781 12.3438L21.9375 10.7031C22.0781 10.6094 22.125 10.5156 22.125 10.375V2.125ZM19.9688 8.17188V9.29688C19.9688 9.34375 19.9688 9.34375 19.9219 9.39062L18.9375 9.95312C18.9375 9.95312 18.8906 9.95312 18.8438 9.95312L17.8594 9.39062C17.8594 9.34375 17.8125 9.34375 17.8125 9.29688V8.17188C17.8125 8.125 17.8594 8.07812 17.8594 8.07812L18.8438 7.51562C18.8906 7.51562 18.9375 7.51562 18.9375 7.51562L19.9219 8.07812C19.9688 8.07812 19.9688 8.125 19.9688 8.17188ZM29.8125 8.125L28.0781 9.10938C27.9844 9.20312 27.8438 9.10938 27.8438 8.96875V8.17188C27.8438 8.07812 27.7969 8.03125 27.75 7.98438L26.8125 7.46875C26.7656 7.46875 26.7188 7.46875 26.6719 7.46875L25.7812 7.98438C25.6875 8.03125 25.6875 8.07812 25.6875 8.17188V9.20312C25.6875 9.25 25.6875 9.29688 25.7812 9.34375L28.6406 10.9844C28.7812 11.0781 28.7812 11.2188 28.6406 11.3125L26.9062 12.25C26.8125 12.3438 26.6719 12.3438 26.5781 12.25L23.7188 10.6562C23.625 10.5625 23.5781 10.4688 23.5781 10.3281V7C23.5781 6.90625 23.625 6.76562 23.7188 6.71875L26.625 5.07812C26.7188 4.98438 26.8594 4.98438 26.9531 5.07812L29.8125 6.71875C29.9062 6.76562 30 6.90625 30 7V7.84375C30 7.9375 29.9062 8.07812 29.8125 8.125ZM26.2031 8.26562L26.7188 7.98438C26.7656 7.9375 26.7656 7.9375 26.8125 7.98438L27.375 8.26562C27.375 8.3125 27.375 8.3125 27.375 8.35938V8.96875C27.375 9.01562 27.375 9.01562 27.375 9.01562L26.8125 9.34375C26.7656 9.39062 26.7656 9.39062 26.7188 9.34375L26.2031 9.01562C26.1562 9.01562 26.1562 9.01562 26.1562 8.96875V8.35938C26.1562 8.3125 26.1562 8.3125 26.2031 8.26562ZM14.25 10.3281C14.25 10.375 14.25 10.375 14.25 10.4219C14.25 10.5156 14.1562 10.5625 14.1094 10.6094L11.25 12.2969C11.1094 12.3438 11.0156 12.3438 10.875 12.2969L8.01562 10.6094C7.92188 10.5625 7.82812 10.4688 7.82812 10.3281V7.04688C7.82812 6.90625 7.92188 6.76562 8.01562 6.71875L10.875 5.07812C10.9688 5.03125 11.1094 5.03125 11.2031 5.07812L14.0625 6.71875C14.2031 6.76562 14.25 6.90625 14.25 7.04688V10.3281ZM10.7812 4.46875V4.51562H10.7344L10.7812 4.46875Z" fill="#6B6D6F"/>
</svg>
