<svg width="24" height="22" viewBox="0 0 24 22" fill="none" xmlns="http://www.w3.org/2000/svg">
<path d="M19.5938 7.34375C22.125 8.1875 24 9.59375 24 11C24 12.5 22.0312 13.9531 19.3125 14.8438C19.1719 14.8906 19.0312 14.9375 18.8906 14.9844C18.9375 15.1719 18.9844 15.4062 19.0312 15.5938C19.5469 18.3125 19.125 20.5156 17.8594 21.2656C16.6406 21.9688 14.6719 21.2656 12.6562 19.5312C12.4219 19.3438 12.2344 19.1562 12 18.9688C11.8594 19.1094 11.6719 19.25 11.5312 19.3906C9.46875 21.2188 7.3125 21.9688 6.04688 21.2188C4.82812 20.5156 4.45312 18.4531 4.92188 15.875C5.01562 15.5938 5.0625 15.3125 5.10938 15.0312C4.92188 14.9844 4.6875 14.8906 4.5 14.8438C1.875 13.9531 0 12.4531 0 11C0 9.59375 1.78125 8.23438 4.26562 7.34375C4.54688 7.25 4.82812 7.15625 5.15625 7.0625C5.0625 6.82812 5.01562 6.54688 4.96875 6.3125C4.45312 3.64062 4.82812 1.53125 6.04688 0.828125C7.3125 0.078125 9.46875 0.875 11.625 2.75C11.7188 2.89062 11.8594 2.98438 12 3.125C12.1875 2.9375 12.375 2.75 12.5625 2.60938C14.625 0.828125 16.6406 0.078125 17.8594 0.78125C19.125 1.53125 19.5 3.78125 18.9375 6.54688C18.8906 6.73438 18.8438 6.92188 18.8438 7.10938C19.0781 7.15625 19.3125 7.25 19.5938 7.34375ZM13.2188 3.35938C13.0312 3.5 12.8906 3.6875 12.7031 3.82812C13.4062 4.625 14.0625 5.46875 14.6719 6.35938C15.75 6.45312 16.7812 6.59375 17.8594 6.82812C17.9062 6.6875 17.9062 6.54688 17.9531 6.35938C18.4688 3.96875 18.1406 2.09375 17.3438 1.67188C16.5938 1.25 15 1.8125 13.2188 3.35938ZM7.82812 13.4375C7.59375 13.0156 7.35938 12.6406 7.125 12.2188C6.84375 12.9219 6.60938 13.625 6.375 14.2812C7.07812 14.4688 7.82812 14.5625 8.57812 14.6562C8.29688 14.2344 8.0625 13.8594 7.82812 13.4375ZM6.375 7.8125C6.60938 8.46875 6.84375 9.125 7.125 9.82812C7.35938 9.40625 7.59375 9.03125 7.82812 8.60938C8.0625 8.23438 8.29688 7.8125 8.53125 7.4375C7.78125 7.53125 7.07812 7.625 6.375 7.8125ZM7.6875 11.0469C8.01562 11.6562 8.34375 12.3125 8.67188 12.9219C9.04688 13.5312 9.42188 14.1406 9.84375 14.75C10.5469 14.7969 11.25 14.8438 12 14.8438C12.7031 14.8438 13.4531 14.7969 14.1562 14.75C14.5312 14.1406 14.9062 13.5312 15.2812 12.9219C15.6562 12.3125 15.9844 11.6562 16.2656 11C15.9844 10.3438 15.6094 9.73438 15.2812 9.125C14.9062 8.51562 14.5312 7.90625 14.1094 7.29688C13.4531 7.25 12.7031 7.20312 12 7.20312C11.25 7.20312 10.5469 7.25 9.84375 7.29688C9.42188 7.90625 9.04688 8.51562 8.67188 9.125C8.34375 9.73438 7.96875 10.3906 7.6875 11.0469ZM16.125 13.4375C15.8906 13.8125 15.6562 14.2344 15.4219 14.6094C16.1719 14.5625 16.875 14.4219 17.625 14.2344C17.3906 13.5312 17.1094 12.875 16.8281 12.1719C16.5938 12.5938 16.4062 13.0156 16.125 13.4375ZM16.8281 9.82812C17.1094 9.17188 17.3438 8.51562 17.5781 7.8125C16.9219 7.67188 16.1719 7.53125 15.4219 7.4375C15.6562 7.8125 15.8906 8.23438 16.125 8.60938C16.3594 9.03125 16.5938 9.40625 16.8281 9.82812ZM12 4.57812C11.5312 5.09375 11.0625 5.65625 10.5938 6.26562C11.5312 6.21875 12.4688 6.21875 13.3594 6.26562C12.9375 5.65625 12.4688 5.09375 12 4.57812ZM6.5625 1.67188C5.8125 2.14062 5.53125 3.82812 5.95312 6.07812C6 6.35938 6.04688 6.59375 6.14062 6.82812C7.17188 6.59375 8.20312 6.45312 9.28125 6.35938C9.89062 5.46875 10.5469 4.625 11.2969 3.82812C11.1562 3.73438 11.0625 3.64062 10.9219 3.5C9.09375 1.90625 7.35938 1.25 6.5625 1.67188ZM5.39062 14.0469C5.71875 13.0156 6.09375 11.9844 6.5625 11.0469C6.14062 10.0625 5.71875 9.07812 5.4375 8.04688C5.15625 8.14062 4.875 8.1875 4.59375 8.28125C2.48438 9.03125 0.984375 10.1562 0.984375 11C1.07812 11.5625 1.40625 12.0781 1.875 12.4062C2.67188 13.0625 3.84375 13.5312 4.82812 13.8594C5.01562 13.9531 5.20312 14 5.39062 14.0469ZM10.875 18.6406C11.0156 18.5 11.1562 18.3594 11.2969 18.2188C10.5938 17.4219 9.89062 16.5781 9.28125 15.7344C8.20312 15.6406 7.17188 15.5 6.09375 15.2656C6.04688 15.5 6 15.7812 5.95312 16.0625C5.53125 18.2656 5.8125 19.9062 6.5625 20.375C7.125 20.5625 7.6875 20.5625 8.20312 20.2812C9.1875 19.9062 10.0781 19.3438 10.875 18.6406ZM12 17.5156C12.5156 16.9531 12.9844 16.3906 13.4062 15.7812C12.9375 15.8281 12.4688 15.8281 12 15.8281C11.5312 15.8281 11.0625 15.8281 10.5938 15.7812C11.0625 16.4375 11.5312 17 12 17.5156ZM18.1406 18.9219C18.2812 17.8906 18.2344 16.8125 18.0469 15.7812C18 15.5938 17.9531 15.4062 17.9062 15.2188C16.8281 15.4531 15.7969 15.6406 14.7188 15.7344C14.1094 16.625 13.4531 17.4219 12.7031 18.2188C12.9375 18.4062 13.125 18.5938 13.3125 18.7812C15.0469 20.2344 16.6406 20.7969 17.3906 20.375C17.8125 20 18.0938 19.4844 18.1406 18.9219ZM18.9844 13.8594C21.3281 13.1094 22.9688 11.8906 22.9688 11C22.9688 10.1562 21.4219 9.03125 19.2656 8.28125C19.0312 8.1875 18.7969 8.14062 18.5625 8.04688C18.2344 9.07812 17.8594 10.0625 17.3906 11C17.8594 11.9844 18.2812 12.9688 18.6094 14C18.75 13.9531 18.8438 13.9062 18.9844 13.8594ZM12 13.1562C10.7812 13.1562 9.84375 12.2188 9.84375 11C9.84375 9.82812 10.7812 8.89062 12 8.89062C13.1719 8.89062 14.1094 9.82812 14.1094 11C14.1094 12.2188 13.1719 13.1562 12 13.1562Z" fill="#6B6D6F"/>
</svg>
