<svg width="100" height="100" viewBox="0 0 100 100" fill="none" xmlns="http://www.w3.org/2000/svg">
<path d="M19.254 12.7135C19.254 26.1459 27.6973 34.1405 44.6054 38.3568L62.5189 42.4378C78.5189 46.0487 88.2595 55.0162 88.2595 69.627C88.3838 75.9892 86.2757 82.2054 82.2919 87.227C82.2919 72.6487 74.6162 64.773 56.1027 60.0378L38.5135 56.1081C24.427 52.9514 13.5567 45.5784 13.5567 29.7081C13.4918 23.5784 15.4918 17.6 19.254 12.7135Z" fill="#6B6D6F"/>
<path opacity="0.7" d="M71.2919 66.0487C78.9297 70.8487 82.2811 77.5676 82.2811 87.2054C75.9568 95.1622 64.8433 99.6325 51.7838 99.6325C29.8 99.6325 14.4162 89 11 70.5298H32.1081C34.827 79.0108 42.0216 82.9406 51.627 82.9406C63.3514 82.9406 71.146 76.7946 71.3027 66.0108" fill="#6B6D6F"/>
<path opacity="0.7" d="M30.2324 32.627C26.7459 30.5892 23.881 27.6649 21.9459 24.1568C20.0161 20.6487 19.0864 16.6973 19.254 12.7135C25.3567 4.82162 35.9729 0 48.9135 0C71.3081 0 84.2648 11.6216 87.4594 27.9784H67.1513C64.9135 21.5297 59.3027 16.5081 49.081 16.5081C38.1567 16.5081 30.708 22.7568 30.2756 32.627" fill="#6B6D6F"/>
</svg>
