<svg width="32" height="32" viewBox="0 0 32 32" fill="none" xmlns="http://www.w3.org/2000/svg">
<path d="M21.2 3.80398C21.2 3.80398 20.8402 3.90679 20.249 4.08671C20.1462 3.75257 19.992 3.36703 19.7863 2.95578C19.1181 1.67064 18.1157 0.976666 16.9333 0.976666C16.8562 0.976666 16.7791 0.976666 16.6763 1.00237C16.6506 0.950963 16.5992 0.92526 16.5735 0.873855C16.0594 0.308393 15.3912 0.0513646 14.5944 0.0770674C13.0522 0.128473 11.51 1.23369 10.2763 3.21281C9.40241 4.60076 8.73414 6.34855 8.55422 7.7108C6.78072 8.25056 5.54699 8.6361 5.52129 8.66181C4.62169 8.94454 4.59598 8.97024 4.49317 9.81843C4.33896 10.461 2 28.5815 2 28.5815L21.4313 31.9486V3.75257C21.3285 3.77827 21.2514 3.77827 21.2 3.80398ZM16.702 5.19193C15.6739 5.50036 14.543 5.8602 13.4378 6.19434C13.7462 4.9863 14.3631 3.77827 15.0827 2.98149C15.3655 2.69875 15.751 2.36462 16.188 2.159C16.6249 3.0843 16.7277 4.34373 16.702 5.19193ZM14.6201 1.10518C14.9799 1.10518 15.2884 1.18229 15.5454 1.33651C15.1341 1.54213 14.7229 1.87626 14.3374 2.26181C13.3606 3.31562 12.6153 4.9606 12.3068 6.52847C11.3815 6.8112 10.4562 7.09393 9.60803 7.35096C10.1478 4.9092 12.2297 1.18229 14.6201 1.10518ZM11.6129 15.2417C11.7157 16.8867 16.0594 17.2465 16.3165 21.1277C16.4964 24.1863 14.6972 26.2682 12.1012 26.4224C8.96546 26.6281 7.24337 24.7775 7.24337 24.7775L7.91165 21.9502C7.91165 21.9502 9.63374 23.261 11.0217 23.1582C11.9213 23.1068 12.2554 22.3614 12.2297 21.8473C12.1012 19.6883 8.55422 19.8168 8.32289 16.2698C8.11727 13.314 10.0707 10.3068 14.3888 10.0241C16.0594 9.92124 16.9076 10.3325 16.9076 10.3325L15.9309 14.0337C15.9309 14.0337 14.8257 13.5196 13.5149 13.6224C11.6129 13.751 11.5871 14.959 11.6129 15.2417ZM17.7301 4.88349C17.7301 4.11241 17.6273 3.00719 17.2675 2.08189C18.4498 2.31321 19.0153 3.62406 19.2723 4.42084C18.8096 4.54936 18.2956 4.70357 17.7301 4.88349Z" fill="#6B6D6F"/>
<path d="M22.0739 31.8458L30.1445 29.841C30.1445 29.841 26.6747 6.37429 26.649 6.22007C26.6233 6.06585 26.4947 5.96304 26.3662 5.96304C26.2377 5.96304 23.9759 5.91164 23.9759 5.91164C23.9759 5.91164 22.5879 4.57509 22.0739 4.06104V31.8458Z" fill="#6B6D6F"/>
</svg>
