<svg width="24" height="24" viewBox="0 0 24 24" fill="none" xmlns="http://www.w3.org/2000/svg">
<g clip-path="url(#clip0_872_4363)">
<path d="M23.4251 0.1875H7.65121V8.09644H15.4127C15.6892 8.09644 15.9136 8.32076 15.9136 8.59727V16.2517H23.926V0.689248C23.9262 0.55626 23.8736 0.428636 23.7796 0.334514C23.6857 0.240392 23.5581 0.1875 23.4251 0.1875Z" fill="#6B6D6F"/>
<path opacity="0.405" d="M7.6503 0.1875V8.09644H0.250437C0.148752 8.09626 0.0572342 8.03471 0.0187097 7.94061C-0.0198148 7.84651 0.00227505 7.73845 0.0746418 7.66702L7.6503 0.1875ZM16.3402 23.7394C16.2682 23.8102 16.1608 23.8309 16.0676 23.7919C15.9744 23.7529 15.9137 23.6619 15.9136 23.5609V16.2517H23.926L16.3402 23.7385V23.7394Z" fill="#6B6D6F"/>
<path opacity="0.405" d="M7.6503 8.09644H15.6636C15.801 8.09644 15.9136 8.20814 15.9136 8.34639V16.2517H8.15205C7.87544 16.2517 7.65121 16.0274 7.65121 15.7508V8.09644H7.6503Z" fill="#6B6D6F"/>
</g>
<defs>
<clipPath id="clip0_872_4363">
<rect width="24" height="24" fill="white"/>
</clipPath>
</defs>
</svg>
