<?xml version="1.0" encoding="UTF-8"?>
<!-- Generator: visioncortex VTracer 0.6.3 -->
<svg version="1.1" xmlns="http://www.w3.org/2000/svg" width="1280" height="907">
<path d="M0 0 C422.4 0 844.8 0 1280 0 C1280 299.31 1280 598.62 1280 907 C857.6 907 435.2 907 0 907 C0 607.69 0 308.38 0 0 Z " fill="#FCFDFF" transform="translate(0,0)"/>
<path d="M0 0 C0.97 0.33 1.94 0.65 2.94 0.99 C10.81 3.99 18.21 8.17 25.62 12.17 C34.54 16.95 41.76 19.18 52 18 C57.86 16.11 62.86 13.44 66 8 C67.45 4.71 68.77 1.38 70 -2 C70.99 -1.5 70.99 -1.5 72 -1 C72.33 33.65 72.66 68.3 73 104 C72.34 104 71.68 104 71 104 C68.75 100.31 68.36 96.44 67.75 92.25 C62.84 62.26 43.5 32.64 19.05 14.85 C3.14 4.11 -16.3 -2.66 -35.7 0.43 C-48.66 3.72 -57.82 13.47 -64.51 24.58 C-81.69 54.39 -83.18 92.14 -83.13 125.81 C-83.13 127.47 -83.13 129.13 -83.14 130.8 C-83.14 134.25 -83.14 137.71 -83.13 141.17 C-83.12 145.55 -83.13 149.93 -83.13 154.31 C-83.14 157.74 -83.14 161.17 -83.13 164.59 C-83.13 166.21 -83.13 167.82 -83.14 169.43 C-83.16 190.33 -83.16 190.33 -80.75 211.06 C-80.56 212.17 -80.56 212.17 -80.36 213.3 C-76.94 231.78 -70.63 250.53 -54.57 261.69 C-44.01 267.94 -29.76 267.23 -18 264.88 C-8.21 262.28 -2.21 257.16 3.06 248.69 C8.44 237.39 8.45 223.91 8.36 211.66 C8.36 210.16 8.36 208.66 8.36 207.15 C8.36 204.04 8.35 200.92 8.34 197.81 C8.31 193.84 8.31 189.87 8.32 185.9 C8.32 182.81 8.32 179.72 8.31 176.63 C8.3 175.17 8.3 173.7 8.3 172.24 C8.35 155.63 8.35 155.63 -0.12 141.81 C-8.61 136.46 -18.26 136.38 -28 136 C-27.67 135.01 -27.34 134.02 -27 133 C-4.98 132.93 17.04 132.88 39.06 132.84 C49.28 132.83 59.51 132.81 69.73 132.77 C78.65 132.74 87.57 132.72 96.49 132.72 C101.21 132.71 105.92 132.7 110.64 132.68 C115.09 132.66 119.54 132.66 124 132.66 C125.62 132.66 127.24 132.65 128.86 132.64 C142.62 132.55 155.81 134.09 168.88 138.69 C169.61 138.94 170.35 139.19 171.11 139.46 C191.84 146.78 208.42 156.48 224 172 C224.8 172.76 225.59 173.52 226.41 174.3 C239.16 187.33 244.54 204.87 244.35 222.74 C243.73 241.63 234.77 258.19 221.17 271.11 C200.29 289.35 171.51 298.48 144 299 C143.05 299.02 142.09 299.04 141.11 299.06 C109.2 299.65 109.2 299.65 95.94 294.66 C92.99 293.65 90.09 293.33 87 293 C87.33 293.99 87.66 294.98 88 296 C88.1 298.88 88.14 301.73 88.14 304.61 C88.15 305.93 88.15 305.93 88.15 307.28 C88.16 309.19 88.17 311.11 88.17 313.02 C88.18 316.06 88.19 319.09 88.21 322.13 C88.26 330.76 88.31 339.39 88.33 348.03 C88.34 353.31 88.37 358.59 88.41 363.87 C88.42 365.88 88.42 367.88 88.42 369.89 C87.76 386.62 87.76 386.62 94.96 400.97 C100.85 405.7 107.69 406.35 115 407 C116.15 407.11 117.31 407.22 118.5 407.33 C121.33 407.58 124.16 407.81 127 408 C127.33 408.99 127.66 409.98 128 411 C76.19 411 24.38 411 -29 411 C-28.67 410.01 -28.34 409.02 -28 408 C-27.41 407.96 -26.81 407.92 -26.2 407.88 C-23.46 407.69 -20.73 407.47 -18 407.25 C-16.6 407.16 -16.6 407.16 -15.17 407.06 C-7.44 406.41 -1.79 404.67 3.88 399.25 C7.88 393.12 8.3 386.69 8.27 379.57 C8.28 378.77 8.28 377.97 8.29 377.14 C8.3 375.42 8.3 373.69 8.3 371.96 C8.31 369.22 8.33 366.48 8.35 363.74 C8.4 355.94 8.43 348.15 8.46 340.35 C8.47 335.57 8.5 330.79 8.54 326.01 C8.55 324.2 8.56 322.39 8.56 320.58 C8.56 304.92 9.64 290.78 20.69 278.69 C29.47 270.33 40.62 269.69 52.13 269.85 C64.82 270.34 75.94 276.81 86.69 283.07 C102.59 292.32 118.99 296 137.12 291.5 C138.76 291.02 140.39 290.53 142 290 C142 289.34 142 288.68 142 288 C142.83 287.53 143.65 287.05 144.5 286.56 C153.54 280.8 158.33 269.75 160.81 259.74 C163.37 247.09 163.46 234.6 163.39 221.73 C163.38 218.01 163.39 214.29 163.41 210.57 C163.43 187.7 162.34 165.49 146.05 147.9 C137.82 140.06 127.97 137.84 116.89 137.87 C116.12 137.87 115.36 137.87 114.57 137.86 C112.95 137.86 111.34 137.87 109.72 137.87 C107.24 137.88 104.76 137.87 102.29 137.86 C100.72 137.86 99.15 137.87 97.58 137.87 C96.83 137.87 96.09 137.86 95.32 137.86 C91.87 137.56 91.87 137.56 89 139 C88.89 140.49 88.85 141.99 88.84 143.49 C88.83 144.46 88.82 145.42 88.81 146.42 C88.81 147.49 88.8 148.57 88.79 149.67 C88.78 150.79 88.77 151.91 88.76 153.07 C88.73 156.8 88.71 160.53 88.68 164.25 C88.66 166.83 88.64 169.41 88.62 171.98 C88.57 178.09 88.53 184.19 88.48 190.29 C88.43 197.24 88.38 204.18 88.32 211.13 C88.21 225.42 88.1 239.71 88 254 C86.58 253.54 85.15 253.08 83.73 252.61 C82.94 252.35 82.14 252.09 81.33 251.83 C76.83 250.23 72.74 247.86 68.53 245.62 C57.48 240.54 43.33 239.7 31.82 243.79 C25.87 246.22 20.54 249.34 15.4 253.2 C11.11 256.41 6.57 259.22 2 262 C1.37 262.39 0.74 262.78 0.09 263.19 C-12.06 270.02 -26.12 270.63 -39.68 270.47 C-42.3 270.44 -44.92 270.45 -47.54 270.46 C-62.61 270.44 -77.64 268.9 -92.06 264.31 C-93.29 263.93 -93.29 263.93 -94.55 263.54 C-122.31 254.56 -148.53 237.26 -162.23 210.73 C-178.47 178.3 -184.39 138.16 -173.07 103.13 C-166.95 85.9 -158.44 70.25 -147 56 C-146.26 55.05 -145.51 54.11 -144.75 53.13 C-112.09 12.19 -52.67 -18.22 0 0 Z " fill="#010506" transform="translate(606,249)"/>
</svg>
