<svg width="1920" height="190" viewBox="0 0 1920 190" fill="none" xmlns="http://www.w3.org/2000/svg">
<path fill-rule="evenodd" clip-rule="evenodd" d="M0 143.398L80 147.044C160 150.69 320 157.982 480 154.336C640 150.69 800 136.107 960 103.294C1120 70.4814 1280 19.4396 1440 4.85625C1600 -9.72711 1760 12.1479 1840 23.0855L1920 34.023V189.313H1840C1760 189.313 1600 189.313 1440 189.313C1280 189.313 1120 189.313 960 189.313C800 189.313 640 189.313 480 189.313C320 189.313 160 189.313 80 189.313H0V143.398Z" fill="#FBFBFB"/>
</svg>
