<svg width="14" height="16" viewBox="0 0 14 16" fill="none" xmlns="http://www.w3.org/2000/svg">
<path d="M14 13C14 14.6562 12.6562 16 11 16H3C1.3125 16 0 14.6875 0 13V11C0 10.4688 0.4375 10 1 10C1.53125 10 2 10.4688 2 11V13C2 13.5625 2.4375 14 3 14H11C11.5312 14 12 13.5625 12 13V11C12 10.4688 12.4375 10 13 10C13.5312 10 14 10.4688 14 11V13ZM7.6875 10.7188C7.3125 11.125 6.65625 11.125 6.28125 10.7188L2.28125 6.71875C1.875 6.34375 1.875 5.6875 2.28125 5.3125C2.65625 4.90625 3.3125 4.90625 3.6875 5.3125L6 7.59375V1C6 0.46875 6.4375 0 7 0C7.53125 0 8 0.46875 8 1V7.59375L10.2812 5.3125C10.6562 4.90625 11.3125 4.90625 11.6875 5.3125C12.0938 5.6875 12.0938 6.34375 11.6875 6.71875L7.6875 10.7188Z" fill="white"/>
</svg>
