<svg width="204" height="155" viewBox="0 0 204 155" fill="none" xmlns="http://www.w3.org/2000/svg">
<g clip-path="url(#clip0_3669_5040)">
<path d="M123.559 46.7078C123.811 46.7195 124.061 46.653 124.274 46.5173C124.488 46.3817 124.654 46.1835 124.752 45.9495C124.849 45.7156 124.873 45.4572 124.819 45.2095C124.765 44.9617 124.637 44.7365 124.452 44.5644C124.421 44.4405 124.398 44.3514 124.367 44.2275C124.378 44.2005 124.389 44.1736 124.401 44.1466C125.534 41.4319 129.376 41.4506 130.5 44.1694C131.497 46.5825 132.767 48.9997 133.08 51.5511C133.218 52.6789 133.16 53.8222 132.908 54.93C135.251 49.7967 136.468 44.2175 136.476 38.5705C136.476 37.1534 136.398 35.7375 136.241 34.3292C136.111 33.1747 135.931 32.0285 135.701 30.8905C134.445 24.7156 131.749 18.928 127.834 14.0029C125.939 12.9645 124.407 11.3675 123.443 9.42731C123.094 8.72988 122.848 7.98536 122.711 7.21693C122.925 7.2451 123.517 3.97526 123.356 3.77464C123.654 3.32061 124.187 3.09492 124.512 2.65188C126.13 0.448457 128.359 0.833188 129.523 3.82746C132.009 5.08773 132.033 7.17779 130.508 9.18795C129.537 10.4668 129.404 12.1973 128.552 13.5664C128.64 13.6791 128.731 13.7882 128.819 13.9009C130.42 15.9692 131.816 18.1902 132.986 20.532C132.655 17.9347 133.144 14.8057 133.977 12.7886C134.925 10.4904 136.703 8.55489 138.269 6.56811C140.149 4.18168 144.005 5.22317 144.337 8.24834C144.34 8.27764 144.343 8.30692 144.346 8.33618C144.113 8.46794 143.886 8.6078 143.663 8.75575C143.383 8.94351 143.167 9.21178 143.041 9.5254C142.916 9.83903 142.888 10.1834 142.96 10.5134C143.033 10.8433 143.203 11.1435 143.449 11.3746C143.695 11.6057 144.004 11.7569 144.336 11.8084L144.37 11.8136C144.288 12.6554 144.141 13.4897 143.932 14.3091C145.941 22.1104 141.605 24.9518 135.414 25.0794C135.277 25.1498 135.144 25.2202 135.007 25.2871C136.183 28.6333 136.92 32.1189 137.201 35.6561C137.36 37.743 137.35 39.8394 137.173 41.9247L137.183 41.8508C137.632 39.5319 138.863 37.4396 140.67 35.9271C143.353 33.7132 147.144 32.898 150.039 31.1184C151.432 30.2618 153.218 31.3688 152.975 32.9915C152.971 33.0174 152.967 33.0433 152.963 33.0692C152.531 33.2457 152.111 33.449 151.705 33.6781C151.472 33.8098 151.245 33.9497 151.022 34.0976C150.742 34.2854 150.525 34.5536 150.4 34.8673C150.275 35.1809 150.246 35.5253 150.319 35.8552C150.392 36.1852 150.562 36.4854 150.808 36.7165C151.053 36.9476 151.363 37.0988 151.695 37.1503L151.729 37.1555C151.754 37.159 151.775 37.1626 151.799 37.1661C151.062 38.9343 150.027 40.5619 148.74 41.9775C147.484 48.7877 142.091 49.4339 136.321 47.4507H136.318C135.685 50.2136 134.768 52.9031 133.581 55.4756H123.804C123.769 55.3665 123.738 55.2538 123.706 55.1447C124.611 55.2019 125.52 55.1475 126.411 54.9829C125.686 54.0888 124.961 53.1878 124.235 52.2938C124.219 52.2771 124.204 52.2594 124.19 52.241C123.822 51.7834 123.45 51.3294 123.082 50.8718L123.082 50.8713C123.063 49.4687 123.223 48.0695 123.559 46.708L123.559 46.7078Z" fill="#F2F2F2"/>
<path d="M154.95 21.5769C153.132 14.9198 167.795 9.21118 171.645 14.5721C172.18 13.81 174.159 13.347 175.067 13.5808C175.974 13.8146 176.738 14.3991 177.483 14.9649C178.507 15.7552 179.568 16.5735 180.197 17.7098C180.83 18.8414 180.928 20.3845 180.076 21.3664C179.401 22.1473 177.408 22.6523 176.393 22.8581C175.686 23.003 175.09 23.12 174.578 23.2041C174.113 22.531 173.898 21.7148 173.973 20.8988C173.628 21.1324 173.339 21.4396 173.126 21.7986C172.914 22.1575 172.783 22.5593 172.744 22.975C172.73 23.148 178.465 44.3445 178.465 44.3445C177.776 44.7384 177.051 45.0656 176.3 45.3218C174.815 43.0417 173.677 40.5515 172.925 37.9336C172.752 39.6841 172.774 41.4485 172.99 43.1942C173.105 44.173 173.27 45.1453 173.484 46.1073C166.668 47.585 156.417 47.0987 151.957 40.8141C151.956 40.7881 151.955 40.7621 151.955 40.736C151.951 40.488 151.862 40.2488 151.702 40.0596C151.543 39.8703 151.322 39.7427 151.079 39.6987C150.836 39.6546 150.585 39.6968 150.37 39.818C150.154 39.9392 149.988 40.1319 149.898 40.3631C149.79 40.6404 149.69 40.8803 149.601 41.0712C148.302 36.4045 149.983 31.0037 154.95 21.5769Z" fill="#2F2E41"/>
<path d="M143.35 133.185V133.403C143.342 133.33 143.342 133.257 143.35 133.185Z" fill="#2F2E41"/>
<path d="M150.023 95.5102C150.197 95.4631 150.373 95.4287 150.551 95.4072C150.347 95.4407 150.171 95.4751 150.023 95.5102Z" fill="#2F2E41"/>
<path d="M149.871 95.5498C149.918 95.5366 149.97 95.5234 150.026 95.5103C149.974 95.5238 149.924 95.5337 149.871 95.5498Z" fill="#2F2E41"/>
<path d="M199.182 154.999H174.199C173.843 154.714 173.595 154.313 173.498 153.866C173.4 153.418 173.459 152.951 173.664 152.542C174.347 150.97 173.009 149.533 173.009 149.533C172.555 148.999 172.24 148.36 172.09 147.674C171.941 146.988 171.962 146.275 172.153 145.6C172.815 143.278 170.221 136.724 170.221 136.724C170.221 136.724 168.823 145.186 167.109 154.999H143.35C142.952 154.318 142.742 153.543 142.742 152.753C142.742 151.964 142.952 151.188 143.35 150.507C144.734 148.149 143.35 147.697 143.35 147.697C143.35 147.697 141.965 145.058 143.35 143.142C144.734 141.226 143.35 133.403 143.35 133.403C143.402 133.749 143.796 133.12 144.404 131.801C145.328 129.795 146.741 126.188 148.169 121.999C149.189 119.01 150.218 115.721 151.078 112.505H151.08C151.306 111.66 151.519 110.823 151.721 109.994C152.116 108.367 152.454 106.786 152.71 105.302C153.268 102.105 153.451 99.3589 153.023 97.5729C152.669 96.0866 151.892 95.2669 150.552 95.4074C151.27 95.2879 152.322 95.1747 153.618 95.0678C153.852 95.0489 154.094 95.03 154.345 95.0091C164.012 94.2754 184.753 93.854 184.753 93.854L191.107 105.281L199.152 119.756C199.152 119.756 198.933 139.174 199.182 154.999Z" fill="#2F2E41"/>
<path d="M172.517 44.4643L157.88 41.3457L154.974 47.2214L145.187 52.9125C145.187 52.9125 151.496 78.8205 151.46 82.4643C151.368 91.7154 136.631 112.454 147.763 110.858C158.894 109.263 161.155 102.58 164.729 103.637C167.951 104.59 171.887 108.829 174.521 105.797C177.156 102.765 178.083 106.266 179.749 106.387C180.541 106.445 180.064 102.559 182.056 106.508C184.048 110.457 194.611 105.141 191.031 101.545C185.068 95.5569 183.857 51.411 183.857 51.411L177.219 49.3597L172.517 44.4643Z" fill="#E6E6E6"/>
<path d="M144.909 138.551C145.497 137.847 145.789 136.94 145.721 136.023C145.653 135.106 145.232 134.252 144.547 133.642C144.406 133.52 144.255 133.411 144.096 133.314L146.543 121.25L140.886 117.849L139.312 134.739C138.964 135.433 138.854 136.224 139.001 136.987C139.147 137.75 139.54 138.443 140.12 138.958C140.452 139.248 140.838 139.469 141.256 139.609C141.674 139.749 142.115 139.805 142.554 139.774C142.993 139.743 143.422 139.625 143.816 139.427C144.21 139.229 144.561 138.956 144.85 138.622C144.87 138.598 144.89 138.575 144.909 138.551Z" fill="#A0616A"/>
<path d="M162.477 74.9616C162.442 74.5738 161.949 74.3977 161.267 74.1545C160.581 73.9424 159.93 73.6325 159.332 73.2342C157.821 72.1379 158.416 70.9912 159.238 69.4064C159.399 69.0982 159.566 68.7775 159.722 68.4442C160.188 67.4568 159.447 63.3837 157.516 56.3359C156.921 54.1662 156.923 52.6338 156.512 51.6171C156.103 50.6004 155.283 50.0993 153.048 49.9945C150.346 49.8575 147.7 50.8021 145.691 52.6212C145.636 52.6694 145.58 52.7218 145.526 52.7721C145.424 52.8686 145.323 52.9671 145.225 53.0677C143.367 54.9455 142.303 57.4724 142.257 60.1197L142.247 60.5704L141.786 82.1037L140.49 101L138.703 127.03L140.026 127.095L145.307 127.359L145.947 127.39L147.467 120.988L149.295 113.284L149.967 110.454L152.052 101.675L153.025 97.5724L153.62 95.0673L153.862 94.0443L155.043 89.0719C155.07 88.9671 157.787 78.1983 160.92 76.3976C162.089 75.7268 162.511 75.3368 162.477 74.9616Z" fill="#E6E6E6"/>
<path d="M197.627 138.423C196.967 137.786 196.58 136.916 196.549 135.997C196.519 135.079 196.846 134.184 197.462 133.504C197.589 133.368 197.727 133.242 197.875 133.129L194.152 121.399L199.414 117.407L202.784 134.03C203.204 134.682 203.398 135.456 203.334 136.231C203.271 137.005 202.953 137.737 202.432 138.312C202.133 138.636 201.772 138.897 201.372 139.082C200.972 139.266 200.539 139.369 200.099 139.385C199.659 139.402 199.22 139.331 198.807 139.177C198.395 139.022 198.016 138.788 197.694 138.487C197.671 138.466 197.649 138.445 197.627 138.423Z" fill="#A0616A"/>
<path d="M200.201 112.97C200.201 112.97 196.098 98.469 197.349 96.8992C198.6 95.3294 194.904 95.0228 196.497 92.0992C198.09 89.1757 195.891 88.6867 195.891 88.6867L194.699 81.9647L192.566 65.4538L192.501 64.9628L191.881 60.1592C191.708 58.7872 191.261 57.4644 190.567 56.2699C189.873 55.0753 188.947 54.0336 187.843 53.2069C187.786 53.1636 187.729 53.1219 187.671 53.0803C187.409 52.8904 187.14 52.7145 186.866 52.5526C184.819 51.3396 182.415 50.881 180.068 51.2556C175.645 51.9475 177.022 53.6041 176.304 58.0423C175.139 65.2585 174.836 69.387 175.405 70.3198C175.596 70.6339 175.797 70.9344 175.989 71.2229C176.977 72.7119 177.691 73.7861 176.305 75.0416C175.752 75.5004 175.138 75.878 174.48 76.163C173.829 76.4798 173.357 76.7072 173.363 77.0966C173.371 77.4739 173.831 77.8146 175.064 78.3548C176.558 79.0115 178.163 81.4945 179.477 84.0308C180.52 86.0753 181.45 88.1759 182.263 90.3229L193.56 122.235L195.403 127.439L196.038 127.339L201.258 126.507L202.567 126.299L200.201 112.97Z" fill="#E6E6E6"/>
<path d="M166.34 41.1253C172.935 41.1253 178.281 35.7553 178.281 29.1311C178.281 22.5068 172.935 17.1368 166.34 17.1368C159.745 17.1368 154.398 22.5068 154.398 29.1311C154.398 35.7553 159.745 41.1253 166.34 41.1253Z" fill="#A0616A"/>
<path d="M148.431 22.5113C146.613 15.8542 161.275 10.1456 165.125 15.5066C165.661 14.7444 167.639 14.2815 168.547 14.5153C169.455 14.7491 170.218 15.3336 170.963 15.8994C171.987 16.6896 173.049 17.508 173.677 18.6442C174.311 19.7758 174.408 21.3189 173.556 22.3009C172.881 23.0818 170.889 23.5868 169.874 23.7925C169.166 23.9375 168.57 24.0544 168.058 24.1386C167.593 23.4654 167.379 22.6493 167.453 21.8333C167.108 22.0668 166.819 22.3741 166.607 22.733C166.394 23.092 166.264 23.4937 166.224 23.9094C166.21 24.0825 171.946 45.2789 171.946 45.2789C171.256 45.6729 170.532 46.0001 169.781 46.2562C168.295 43.9762 167.158 41.4859 166.406 38.8681C166.233 40.6186 166.254 42.383 166.471 44.1286C166.586 45.1075 166.75 46.0798 166.964 47.0418C160.149 48.5194 149.897 48.0331 145.437 41.7485C145.437 41.7225 145.436 41.6965 145.435 41.6705C145.432 41.4224 145.342 41.1833 145.183 40.994C145.023 40.8048 144.803 40.6772 144.56 40.6331C144.317 40.5891 144.066 40.6312 143.85 40.7525C143.635 40.8737 143.468 41.0664 143.378 41.2975C143.27 41.5748 143.171 41.8148 143.082 42.0057C141.783 37.339 143.463 31.9382 148.431 22.5113Z" fill="#2F2E41"/>
<path d="M89.2073 63.9573C88.9552 63.9689 88.7055 63.9024 88.4922 63.7668C88.2789 63.6312 88.1123 63.4329 88.0149 63.199C87.9175 62.9651 87.8941 62.7067 87.9478 62.459C88.0014 62.2112 88.1297 61.986 88.315 61.8139C88.3461 61.6899 88.3683 61.6009 88.3994 61.477C88.3883 61.45 88.3771 61.423 88.3659 61.3961C87.2324 58.6813 83.3908 58.7001 82.2669 61.4189C81.2694 63.832 79.9994 66.2492 79.6867 68.8006C79.549 69.9284 79.6071 71.0717 79.8584 72.1795C77.5155 67.0462 76.2989 61.4669 76.2911 55.82C76.2906 54.4029 76.369 52.987 76.5259 51.5787C76.6555 50.4242 76.8354 49.278 77.0656 48.1399C78.3213 41.9651 81.0174 36.1775 84.9325 31.2524C86.8274 30.2139 88.3598 28.617 89.3233 26.6768C89.6723 25.9794 89.919 25.2348 90.0557 24.4664C89.8419 24.4946 89.2497 21.2247 89.4109 21.0241C89.113 20.5701 88.5799 20.3444 88.2545 19.9014C86.6365 17.6979 84.4072 18.0827 83.2435 21.0769C80.7574 22.3372 80.7333 24.4273 82.2588 26.4374C83.2293 27.7163 83.3626 29.4468 84.2141 30.8159C84.1265 30.9286 84.0354 31.0377 83.9478 31.1503C82.3464 33.2187 80.9506 35.4397 79.7805 37.7815C80.1116 35.1842 79.6228 32.0551 78.7896 30.0381C77.8411 27.7399 76.0634 25.8044 74.4979 23.8176C72.6174 21.4312 68.7613 22.4726 68.43 25.4978C68.4268 25.5271 68.4237 25.5564 68.4207 25.5857C68.6532 25.7174 68.8808 25.8573 69.1035 26.0052C69.3833 26.193 69.6001 26.4613 69.7255 26.7749C69.8509 27.0885 69.879 27.4329 69.8062 27.7628C69.7335 28.0928 69.5631 28.393 69.3176 28.6241C69.0721 28.8552 68.7627 29.0064 68.4302 29.0579L68.3961 29.0631C68.479 29.9049 68.6254 30.7391 68.8341 31.5586C66.8258 39.3599 71.1617 42.2013 77.3529 42.3289C77.4895 42.3993 77.6227 42.4697 77.7594 42.5366C76.5838 45.8828 75.8464 49.3684 75.5658 52.9056C75.4069 54.9925 75.4162 57.0889 75.5938 59.1742L75.5833 59.1003C75.1347 56.7814 73.9031 54.6891 72.0966 53.1766C69.4133 50.9627 65.6225 50.1475 62.7278 48.3679C61.3343 47.5113 59.5488 48.6183 59.7919 50.2409C59.7958 50.2668 59.7998 50.2927 59.8038 50.3187C60.2353 50.4952 60.6555 50.6985 61.0618 50.9275C61.2943 51.0593 61.5219 51.1992 61.7447 51.3471C62.0244 51.5349 62.2412 51.8031 62.3666 52.1168C62.492 52.4304 62.5202 52.7747 62.4474 53.1047C62.3746 53.4347 62.2043 53.7349 61.9587 53.966C61.7132 54.1971 61.4039 54.3483 61.0713 54.3998L61.0372 54.405C61.0127 54.4085 60.9917 54.4121 60.9672 54.4156C61.7045 56.1838 62.7393 57.8114 64.0264 59.227C65.2821 66.0372 70.6758 66.6833 76.4453 64.7002H76.4488C77.0818 67.4631 77.999 70.1525 79.1856 72.7251H88.9623C88.9974 72.616 89.0289 72.5033 89.0605 72.3942C88.1555 72.4513 87.247 72.397 86.3552 72.2323C87.0806 71.3383 87.8059 70.4373 88.5313 69.5433C88.5475 69.5265 88.5627 69.5089 88.5769 69.4905C88.9448 69.0329 89.3163 68.5789 89.6842 68.1213L89.6844 68.1208C89.704 66.7182 89.5438 65.3189 89.2077 63.9575L89.2073 63.9573Z" fill="#F2F2F2"/>
<path d="M43.5903 14.5718C43.3684 15.0912 36.5265 15.0355 36.2132 15.498C33.7971 19.0686 42.5064 34.2606 40.0904 37.8358L39.7538 38.2387C40.542 37.8738 41.2992 37.4448 42.0177 36.9559C42.0822 35.4924 42.1468 34.0244 42.2159 32.5609C42.9396 33.4908 43.5237 34.5221 43.9496 35.6221C44.5121 35.2238 44.9735 34.4855 47.3846 33.0333C48.3607 31.9563 49.4859 31.026 50.7258 30.2708L43.5903 14.5718Z" fill="#2F2E41"/>
<path d="M48.5558 43.8347C47.8008 43.3407 46.9394 43.0347 46.043 42.942C45.1467 42.8494 44.2412 42.9727 43.4018 43.3019C42.5625 43.6311 41.8133 44.1566 41.2166 44.8348C40.6199 45.513 40.1929 46.3243 39.9709 47.2015L29.5736 74.4122L11.7019 64.2211C11.6234 63.0498 11.1776 61.9334 10.4285 61.0322C9.67927 60.1311 8.66519 59.4913 7.53165 59.2048C6.39812 58.9183 5.20336 58.9997 4.11874 59.4374C3.03413 59.8751 2.11537 60.6466 1.49425 61.6411C0.873134 62.6357 0.581559 63.8023 0.661347 64.9736C0.741135 66.1449 1.18819 67.2607 1.93839 68.1611C2.68859 69.0614 3.70338 69.7 4.83724 69.9852C5.9711 70.2704 7.16577 70.1876 8.24989 69.7487C12.0135 73.7833 28.3302 90.3253 35.0852 83.862C40.7631 78.4292 48.957 57.3738 50.9294 50.103C51.2454 48.9404 51.1858 47.707 50.7592 46.5805C50.3327 45.454 49.5612 44.4926 48.5558 43.8347Z" fill="#FFB6B6"/>
<path d="M29.0352 85.0024L32.3162 99.8979L56.3084 102.078L58.5133 89.1077L29.0352 85.0024Z" fill="#FFB6B6"/>
<path d="M65.6847 123.2C65.6738 123.413 65.6606 123.625 65.6453 123.838C65.4151 126.925 65.1521 130.484 64.8672 134.385C64.4179 140.575 63.916 147.624 63.4097 154.999H13.0859L22.8457 125.534C22.8457 125.534 26.7865 123.355 24.7802 119.694C22.7739 116.033 26.7215 118.95 26.7583 113.722C26.795 108.494 30.3325 102.932 30.3325 102.932L30.9133 95.0153L31.2442 95.0219L57.4329 95.46L57.9107 95.4688L58.7151 102.265C63.5989 108.102 66.0905 115.586 65.6847 123.2Z" fill="#2F2E41"/>
<path d="M44.0085 36.6164L55.9505 35.9985L61.4973 44.8018C61.4973 44.8018 71.9337 46.5544 71.2103 58.9067C70.4868 71.259 58.5123 82.0983 58.5123 82.0983L59.0242 80.3356L58.1352 82.887L58.2492 84.3196L59.4619 85.8368L59.5868 87.4059L58.5123 89.8884C58.652 90.1134 58.7262 90.3732 58.7263 90.6383C58.7265 90.9035 58.6527 91.1634 58.5133 91.3885C58.3738 91.6136 58.1744 91.795 57.9375 91.9121C57.7007 92.0291 57.4359 92.0771 57.1732 92.0507L39.9179 90.3138C39.525 89.2283 39.2098 87.9296 37.6351 90.0916L36.0096 89.9335L29.2524 89.2759L28.8547 87.8207C28.6287 86.9938 28.5935 86.1261 28.7517 85.2835C28.91 84.4409 29.2575 83.6456 29.7678 82.9582C29.1809 81.1122 29.3346 79.109 30.1963 77.3751L30.2286 77.3101L30.9462 76.7094C30.9462 76.7094 23.0956 64.8629 32.1078 55.9404L35.7248 49.7642L39.772 44.8047L44.0085 36.6164Z" fill="#161618"/>
<path d="M46.9806 31.4197C53.2349 31.4197 58.305 26.3272 58.305 20.0453C58.305 13.7634 53.2349 8.6709 46.9806 8.6709C40.7263 8.6709 35.6562 13.7634 35.6562 20.0453C35.6562 26.3272 40.7263 31.4197 46.9806 31.4197Z" fill="#FFB6B6"/>
<path d="M55.5828 36.4309C54.6606 35.6569 54.0188 34.5987 53.757 33.4207C53.5475 34.851 53.6022 36.3079 53.9184 37.7183C53.3051 38.1814 52.7104 38.6214 52.1478 39.0197C51.7219 37.9197 51.1378 36.8883 50.4142 35.9585C50.345 37.4219 50.2805 38.89 50.2159 40.3534C49.4974 40.8424 48.7403 41.2714 47.9521 41.6362L48.2886 41.2333C50.7047 37.6581 44.4525 31.0773 46.8685 27.5067C47.5463 26.5064 44.4848 18.6011 42.1518 18.2445C40.0769 17.9296 40.1646 18.5317 38.1543 18.9716C37.9455 18.0971 37.6214 17.2545 37.1906 16.4662C37.3053 17.3446 37.2789 18.2359 37.1123 19.1059C36.3976 19.1337 35.8353 18.6763 35.0743 18.5594C30.2192 17.8138 30.7126 12.539 32.0635 10.8672C33.4191 9.2 37.9191 8.69984 39.994 8.15798C40.183 7.97275 40.6118 8.08853 40.8008 7.91254C44.7771 4.25743 50.0952 3.65212 54.8809 5.27214C59.9845 6.99978 63.1665 10.3435 64.7997 15.4983L65.2681 19.6234C65.6883 20.9498 65.1597 27.1213 64.7997 28.4654C63.4003 33.6902 60.4201 31.082 55.5828 36.4309Z" fill="#2F2E41"/>
<path d="M72.0925 90.32L71.6467 55.4445C71.6235 53.967 71.0228 52.5579 69.9743 51.5213C68.9259 50.4848 67.5137 49.9038 66.0425 49.9038C65.2814 49.9038 64.5283 50.0595 63.8291 50.3613C63.1298 50.6632 62.4992 51.105 61.9755 51.6597C61.4518 52.2144 61.046 52.8704 60.783 53.5877C60.5199 54.305 60.4051 55.0686 60.4454 55.832L62.0142 92.0448L62.044 114.089C61.1194 114.483 60.3379 115.154 59.8057 116.009C59.2735 116.865 59.0164 117.864 59.0693 118.871C59.1222 119.879 59.4826 120.845 60.1015 121.64C60.7204 122.434 61.5679 123.018 62.5286 123.312C63.4894 123.606 64.5169 123.595 65.4717 123.282C66.4264 122.969 67.2621 122.369 67.8651 121.562C68.4681 120.755 68.8092 119.782 68.8421 118.773C68.875 117.765 68.5981 116.771 68.049 115.926L72.0925 90.32Z" fill="#FFB6B6"/>
<path d="M130.541 135.441C130.541 135.441 129.851 147.896 129.535 155H105.797C105.308 148.535 105.144 143.786 105.144 143.786L103.845 155H79.8508L78.3633 134.231L85.5518 116.333C85.5518 116.333 124.508 113.619 128.122 117.062C131.733 120.502 130.541 135.441 130.541 135.441Z" fill="#2F2E41"/>
<path d="M109.548 30.6612C116.709 30.6612 122.515 24.8304 122.515 17.6377C122.515 10.4449 116.709 4.61411 109.548 4.61411C102.387 4.61411 96.582 10.4449 96.582 17.6377C96.582 24.8304 102.387 30.6612 109.548 30.6612Z" fill="#FFB6B6"/>
<path d="M124.663 13.4054C123.331 14.0154 122.469 18.433 121.422 17.406C120.375 16.379 120.445 15.0425 119.034 14.6635C117.894 14.3561 116.667 14.7074 115.628 15.2614C115.442 15.3592 115.262 15.4655 115.087 15.5712C114.971 15.4935 114.856 15.4204 114.732 15.353C113.802 14.8531 112.717 14.7305 111.7 15.0104C112.504 15.2808 113.202 15.7981 113.697 16.4892C113.349 16.7234 112.997 16.9582 112.637 17.1662C109.625 18.9117 105.34 15.1162 102.17 13.6903C104.156 17.4326 103.178 18.9825 101.454 22.8529L101.395 23.0733C101.493 22.1032 98.5042 21.3803 98.6774 22.7459C98.8005 23.7154 99.6358 25.8703 100.104 26.7263C96.771 22.8558 94.4936 18.1193 94.9741 13.2332C95.0787 12.2068 95.0472 11.1238 95.5743 10.233C96.1019 9.34672 97.202 8.72478 98.1751 9.06275C98.0927 7.50452 98.4322 5.95298 99.1575 4.57307C99.8828 3.19316 100.967 2.03646 102.294 1.22594C103.622 0.41542 105.143 -0.0186213 106.697 -0.0300421C108.25 -0.0414629 109.778 0.370166 111.117 1.16108C112.362 1.8945 113.4 2.93179 114.541 3.82653C115.681 4.72126 116.996 5.50118 118.442 5.57504C119.36 5.61948 120.358 5.3945 121.147 5.87179C122.06 6.42561 122.216 7.58512 122.353 8.70087C121.539 8.78151 120.767 9.1042 120.136 9.6277C120.978 9.54137 121.827 9.72412 122.56 10.15C122.574 10.1563 122.587 10.1639 122.6 10.1726C123.082 12.0166 123.033 12.4254 124.663 13.4054Z" fill="#2F2E41"/>
<path d="M79.9062 122.634C90.9481 109.652 87.2185 93.1399 82.8361 76.4721L83.6699 51.8487C83.7109 50.6409 84.0405 49.4606 84.6311 48.4077C85.2217 47.3547 86.0559 46.4599 87.0632 45.7989L98.3356 38.4022L102.723 32.0308L114.817 33.2455L121.523 40.3691L128.946 46.0613C130.81 47.4905 132.229 49.4252 133.034 51.6372C133.839 53.8493 133.998 56.2465 133.492 58.5463L126.388 90.8144C126.388 90.8144 129.359 107.542 127.546 109.39C125.733 111.237 121.062 109.391 124.766 111.465C129.212 113.954 133.254 113.494 131.004 115.754C128.755 118.014 131.602 121.155 131.602 121.155L79.9062 122.634Z" fill="#161618"/>
<path d="M84.6287 141.501L86.4695 128.328L79.1244 126.222L77.6715 140.219C77.0637 140.779 76.6233 141.498 76.4 142.295C76.1767 143.092 76.1792 143.937 76.4074 144.733C76.6356 145.529 77.0803 146.245 77.6915 146.801C78.3028 147.357 79.0564 147.731 79.8675 147.88C80.6787 148.03 81.5153 147.949 82.2833 147.647C83.0513 147.345 83.7203 146.834 84.215 146.172C84.7096 145.509 85.0104 144.721 85.0835 143.895C85.1566 143.07 84.9991 142.241 84.6287 141.501Z" fill="#FFB6B6"/>
<path d="M98.6098 40.7768C98.6098 40.7768 77.7024 47.6116 77.2039 52.6125C76.7054 57.6134 76.8707 60.6748 74.6641 80.6862L74.7803 134.592C74.7803 134.592 88.7975 137.606 87.3599 134.383C85.9224 131.16 86.424 129.644 86.424 129.644C86.424 129.644 89.4293 128.453 88.677 124.668C87.9247 120.884 91.6973 102.131 91.6973 102.131L94.0785 68.4979L98.6098 40.7768Z" fill="#161618"/>
<path d="M124.39 140.803L123.41 127.538L130.877 125.918L131.416 139.98C131.986 140.579 132.378 141.325 132.549 142.136C132.72 142.946 132.663 143.788 132.383 144.568C132.104 145.347 131.613 146.033 130.967 146.547C130.321 147.062 129.545 147.386 128.726 147.482C127.906 147.578 127.077 147.442 126.33 147.09C125.583 146.739 124.949 146.185 124.499 145.491C124.048 144.797 123.799 143.991 123.78 143.163C123.761 142.335 123.972 141.517 124.39 140.803Z" fill="#FFB6B6"/>
<path d="M116.992 39.377C116.992 39.377 137.41 47.5697 137.582 52.5927C137.754 57.6156 137.39 60.6596 138.29 80.7731L134.665 134.556C134.665 134.556 120.482 136.643 122.126 133.522C123.771 130.4 123.369 128.854 123.369 128.854C123.369 128.854 120.447 127.468 121.444 123.741C122.441 120.015 119.897 101.054 119.897 101.054L119.71 67.3363L116.992 39.377Z" fill="#161618"/>
</g>
<defs>
<clipPath id="clip0_3669_5040">
<rect width="202.692" height="155" fill="white" transform="translate(0.652344)"/>
</clipPath>
</defs>
</svg>
