<svg width="162" height="155" viewBox="0 0 162 155" fill="none" xmlns="http://www.w3.org/2000/svg">
<g clip-path="url(#clip0_3669_4990)">
<path d="M147.387 154.845V139.301C147.387 139.301 153.471 150.321 147.387 154.845Z" fill="#F1F1F1"/>
<path d="M147.763 154.843L136.262 144.331C136.262 144.331 148.53 147.321 147.763 154.843Z" fill="#F1F1F1"/>
<path d="M107.199 68.5867L46.1686 104.101C45.955 104.225 45.7007 104.26 45.4616 104.197C45.2224 104.135 45.0179 103.98 44.8929 103.768L5.64658 36.9115C5.52206 36.6989 5.48735 36.4457 5.55007 36.2076C5.6128 35.9695 5.76782 35.7658 5.98114 35.6414L67.0112 0.126978C67.2248 0.0030035 67.4791 -0.0315497 67.7182 0.0308984C67.9574 0.0933465 68.1619 0.247697 68.2869 0.460087L107.533 67.3165C107.658 67.5292 107.692 67.7824 107.63 68.0205C107.567 68.2586 107.412 68.4622 107.199 68.5867Z" fill="white"/>
<path d="M107.199 68.5867L46.1686 104.101C45.955 104.225 45.7007 104.26 45.4616 104.197C45.2224 104.135 45.0179 103.98 44.8929 103.768L5.64658 36.9115C5.52206 36.6989 5.48735 36.4457 5.55007 36.2076C5.6128 35.9695 5.76782 35.7658 5.98114 35.6414L67.0112 0.126978C67.2248 0.0030035 67.4791 -0.0315497 67.7182 0.0308984C67.9574 0.0933465 68.1619 0.247697 68.2869 0.460087L107.533 67.3165C107.658 67.5292 107.692 67.7824 107.63 68.0205C107.567 68.2586 107.412 68.4622 107.199 68.5867ZM6.16938 35.962C6.04138 36.0367 5.94836 36.1589 5.91073 36.3017C5.87309 36.4446 5.89392 36.5965 5.96864 36.7241L45.2149 103.581C45.2899 103.708 45.4126 103.801 45.5561 103.838C45.6996 103.876 45.8522 103.855 45.9804 103.78L107.01 68.266C107.138 68.1914 107.231 68.0692 107.269 67.9263C107.307 67.7834 107.286 67.6315 107.211 67.5039L67.9649 0.647488C67.8899 0.520047 67.7672 0.427432 67.6237 0.389962C67.4802 0.352493 67.3276 0.373228 67.1994 0.447621L6.16938 35.962Z" fill="#3F3D56"/>
<path d="M45.3981 42.6197L30.2614 51.428C30.0478 51.552 29.7935 51.5866 29.5543 51.5241C29.3152 51.4617 29.1107 51.3073 28.9856 51.0949L20.1388 36.0242C20.0142 35.8115 19.9795 35.5583 20.0423 35.3202C20.105 35.0821 20.26 34.8785 20.4733 34.754L35.6101 25.9457C35.8237 25.8217 36.0779 25.7871 36.3171 25.8496C36.5563 25.912 36.7608 26.0664 36.8858 26.2788L45.7327 41.3495C45.8572 41.5622 45.8919 41.8154 45.8292 42.0535C45.7665 42.2916 45.6114 42.4952 45.3981 42.6197ZM20.6616 35.0747C20.5336 35.1493 20.4405 35.2715 20.4029 35.4144C20.3653 35.5572 20.3861 35.7091 20.4608 35.8367L29.3077 50.9075C29.3827 51.035 29.5054 51.1276 29.6489 51.165C29.7924 51.2025 29.945 51.1818 30.0731 51.1074L45.2099 42.299C45.3379 42.2244 45.4309 42.1022 45.4685 41.9593C45.5062 41.8165 45.4853 41.6646 45.4106 41.537L36.5637 26.4662C36.4887 26.3388 36.366 26.2461 36.2225 26.2087C36.079 26.1712 35.9265 26.1919 35.7983 26.2663L20.6616 35.0747Z" fill="#F2F2F2"/>
<path d="M42.1328 46.9933L26.9961 55.8016C26.8039 55.9132 26.575 55.9443 26.3598 55.8881C26.1445 55.8319 25.9605 55.6929 25.848 55.5018L17.0011 40.431C16.889 40.2396 16.8578 40.0118 16.9142 39.7975C16.9707 39.5832 17.1102 39.3999 17.3022 39.2879L32.4389 30.4796C32.6312 30.368 32.86 30.3369 33.0753 30.3931C33.2905 30.4493 33.4746 30.5882 33.5871 30.7794L42.434 45.8501C42.546 46.0415 42.5773 46.2694 42.5208 46.4837C42.4644 46.698 42.3248 46.8813 42.1328 46.9933Z" fill="#161618"/>
<path d="M78.6679 35.6274L31.3253 63.1768C31.1332 63.2886 30.9042 63.3199 30.6889 63.2636C30.4736 63.2074 30.2895 63.0683 30.1772 62.877C30.0649 62.6856 30.0335 62.4577 30.09 62.2433C30.1464 62.0289 30.2861 61.8457 30.4783 61.7338L77.8209 34.1844C77.916 34.129 78.0212 34.0929 78.1304 34.078C78.2396 34.0631 78.3507 34.0697 78.4573 34.0976C78.5639 34.1254 78.664 34.1739 78.7518 34.2402C78.8396 34.3066 78.9134 34.3895 78.969 34.4842C79.0247 34.579 79.061 34.6837 79.0759 34.7924C79.0909 34.9011 79.0842 35.0117 79.0563 35.1179C79.0283 35.224 78.9796 35.3237 78.913 35.4111C78.8464 35.4985 78.7631 35.572 78.6679 35.6274Z" fill="#CCCCCC"/>
<path d="M70.1528 47.2509L34.2433 68.1472C34.1482 68.2026 34.043 68.2387 33.9338 68.2536C33.8246 68.2685 33.7135 68.2619 33.6069 68.2341C33.3916 68.1778 33.2075 68.0387 33.0952 67.8474C32.9828 67.6561 32.9515 67.4281 33.0079 67.2137C33.0644 66.9994 33.2041 66.8161 33.3963 66.7043L69.3058 45.8079C69.4009 45.7525 69.5061 45.7164 69.6153 45.7015C69.7245 45.6866 69.8356 45.6932 69.9422 45.7211C70.0488 45.7489 70.1489 45.7974 70.2367 45.8637C70.3245 45.9301 70.3983 46.013 70.4539 46.1077C70.5095 46.2025 70.5459 46.3072 70.5608 46.4159C70.5758 46.5246 70.5691 46.6352 70.5412 46.7414C70.5132 46.8475 70.4645 46.9472 70.3979 47.0346C70.3312 47.122 70.248 47.1955 70.1528 47.2509Z" fill="#CCCCCC"/>
<path d="M67.7787 17.4438L46.8449 29.6255C46.6527 29.7373 46.4238 29.7686 46.2084 29.7124C45.9931 29.6561 45.809 29.5171 45.6967 29.3257C45.5844 29.1344 45.553 28.9064 45.6095 28.6921C45.666 28.4777 45.8056 28.2944 45.9978 28.1826L66.9316 16.0008C67.1238 15.889 67.3527 15.8578 67.5681 15.914C67.6747 15.9418 67.7747 15.9903 67.8625 16.0566C67.9503 16.123 68.0242 16.2059 68.0798 16.3006C68.1354 16.3954 68.1717 16.5001 68.1867 16.6088C68.2017 16.7176 68.195 16.8282 68.167 16.9343C68.139 17.0405 68.0904 17.1401 68.0237 17.2275C67.9571 17.3149 67.8738 17.3884 67.7787 17.4438Z" fill="#CCCCCC"/>
<path d="M65.4723 25.4541L49.7628 34.5957C49.6677 34.6511 49.5625 34.6872 49.4533 34.7021C49.3441 34.717 49.233 34.7104 49.1264 34.6825C49.0198 34.6547 48.9197 34.6062 48.8319 34.5399C48.7441 34.4735 48.6703 34.3906 48.6147 34.2959C48.5591 34.2011 48.5227 34.0964 48.5078 33.9877C48.4928 33.879 48.4995 33.7684 48.5275 33.6622C48.5554 33.5561 48.6041 33.4564 48.6707 33.369C48.7374 33.2816 48.8206 33.2081 48.9158 33.1527L64.6252 24.0112C64.8174 23.8993 65.0463 23.8681 65.2617 23.9243C65.477 23.9805 65.6611 24.1196 65.7734 24.311C65.8857 24.5023 65.9171 24.7302 65.8606 24.9446C65.8041 25.159 65.6645 25.3423 65.4723 25.4541Z" fill="#CCCCCC"/>
<path d="M84.5039 45.5679L37.1613 73.1173C36.9691 73.2291 36.7402 73.2604 36.5248 73.2042C36.3095 73.1479 36.1255 73.0089 36.0131 72.8175C35.9008 72.6262 35.8694 72.3982 35.9259 72.1838C35.9824 71.9695 36.1221 71.7862 36.3142 71.6744L83.6568 44.1249C83.849 44.0131 84.0779 43.9819 84.2933 44.0381C84.5086 44.0943 84.6926 44.2334 84.805 44.4247C84.9173 44.6161 84.9487 44.844 84.8922 45.0584C84.8357 45.2728 84.696 45.456 84.5039 45.5679Z" fill="#CCCCCC"/>
<path d="M75.9887 57.1909L40.0792 78.0873C39.9841 78.1426 39.8789 78.1788 39.7697 78.1937C39.6605 78.2086 39.5494 78.202 39.4428 78.1741C39.3362 78.1463 39.2361 78.0978 39.1483 78.0315C39.0605 77.9651 38.9867 77.8822 38.9311 77.7875C38.8755 77.6927 38.8391 77.588 38.8242 77.4793C38.8092 77.3705 38.8159 77.2599 38.8439 77.1538C38.8718 77.0476 38.9205 76.948 38.9871 76.8606C39.0538 76.7732 39.137 76.6997 39.2322 76.6443L75.1417 55.748C75.2369 55.6926 75.3421 55.6564 75.4513 55.6415C75.5605 55.6266 75.6715 55.6333 75.7781 55.6611C75.8848 55.689 75.9848 55.7374 76.0726 55.8038C76.1604 55.8701 76.2342 55.953 76.2899 56.0478C76.3455 56.1425 76.3818 56.2472 76.3968 56.356C76.4117 56.4647 76.4051 56.5753 76.3771 56.6814C76.3491 56.7876 76.3005 56.8872 76.2338 56.9746C76.1672 57.0621 76.0839 57.1355 75.9887 57.1909Z" fill="#CCCCCC"/>
<path d="M90.3398 55.5083L42.9972 83.0577C42.9021 83.1131 42.7969 83.1493 42.6877 83.1642C42.5785 83.1791 42.4674 83.1724 42.3608 83.1446C42.2542 83.1168 42.1541 83.0683 42.0663 83.0019C41.9785 82.9356 41.9047 82.8527 41.8491 82.7579C41.7934 82.6632 41.7571 82.5585 41.7422 82.4498C41.7272 82.341 41.7339 82.2304 41.7618 82.1243C41.7898 82.0181 41.8385 81.9185 41.9051 81.8311C41.9717 81.7437 42.055 81.6702 42.1502 81.6148L89.4928 54.0654C89.5879 54.01 89.6931 53.9738 89.8023 53.9589C89.9115 53.944 90.0226 53.9507 90.1292 53.9785C90.2358 54.0063 90.3359 54.0548 90.4237 54.1212C90.5115 54.1875 90.5853 54.2704 90.6409 54.3652C90.6965 54.4599 90.7328 54.5646 90.7478 54.6734C90.7628 54.7821 90.7561 54.8927 90.7281 54.9988C90.7002 55.105 90.6515 55.2046 90.5849 55.292C90.5182 55.3794 90.435 55.4529 90.3398 55.5083Z" fill="#CCCCCC"/>
<path d="M93.2578 60.4783L45.9152 88.0277C45.82 88.0831 45.7148 88.1192 45.6056 88.1341C45.4964 88.149 45.3854 88.1424 45.2787 88.1145C45.1721 88.0867 45.0721 88.0382 44.9843 87.9719C44.8965 87.9055 44.8227 87.8226 44.767 87.7279C44.7114 87.6331 44.6751 87.5284 44.6601 87.4197C44.6452 87.311 44.6518 87.2004 44.6798 87.0942C44.7078 86.9881 44.7564 86.8884 44.8231 86.801C44.8897 86.7136 44.973 86.6401 45.0681 86.5847L92.4107 59.0353C92.5059 58.9799 92.6111 58.9438 92.7203 58.9289C92.8295 58.914 92.9405 58.9206 93.0471 58.9484C93.1538 58.9763 93.2538 59.0248 93.3416 59.0911C93.4294 59.1574 93.5032 59.2404 93.5589 59.3351C93.6145 59.4298 93.6508 59.5346 93.6658 59.6433C93.6807 59.752 93.6741 59.8626 93.6461 59.9688C93.6181 60.0749 93.5695 60.1745 93.5028 60.262C93.4362 60.3494 93.3529 60.4229 93.2578 60.4783Z" fill="#CCCCCC"/>
<path d="M77.9467 79.8263C78.6045 79.0551 79.1965 78.2307 79.7167 77.3615C80.1832 76.5775 80.6409 75.7392 80.7438 74.8197C80.7964 74.4281 80.7554 74.0297 80.6242 73.6569C80.493 73.2841 80.2753 72.9473 79.9887 72.674C79.7118 72.4199 79.3607 72.26 78.9865 72.2177C78.6122 72.1753 78.2341 72.2526 77.9069 72.4384C77.5758 72.6276 77.3023 72.9025 77.1152 73.2338C76.9282 73.5652 76.8346 73.9408 76.8445 74.3207C76.8713 74.7391 76.9927 75.146 77.1996 75.5112C77.4065 75.8763 77.6935 76.1902 78.0392 76.4295C79.4385 77.4389 81.6239 77.3862 83.1154 76.618C84.7953 75.7528 85.6633 73.4891 84.3435 71.9395C84.069 71.6172 83.6121 71.9774 83.6809 72.3251C83.7681 72.7947 84.0321 73.2135 84.419 73.4958C84.8059 73.7781 85.2864 73.9027 85.7625 73.8441C86.2385 73.7856 86.6742 73.5482 86.9804 73.1806C87.2866 72.813 87.4403 72.3429 87.41 71.8662L86.8167 72.2115C87.5441 72.5323 88.3435 72.6567 89.1346 72.5722C89.9256 72.4877 90.6803 72.1973 91.3228 71.7302C91.6406 71.5003 91.9244 71.2272 92.166 70.9188C92.4565 70.5416 92.9443 70.2978 93.3393 70.0261L96.1861 68.0677C96.6048 67.7796 96.2066 67.0931 95.7845 67.3835L93.2063 69.1572C92.7767 69.4528 92.3442 69.7447 91.9172 70.044C91.612 70.258 91.4242 70.6034 91.1464 70.8575C90.6205 71.3285 89.971 71.6409 89.2736 71.7584C88.5762 71.8758 87.8596 71.7935 87.2073 71.521C87.1466 71.4884 87.0784 71.472 87.0095 71.4732C86.9405 71.4744 86.873 71.4933 86.8135 71.5279C86.7539 71.5626 86.7043 71.6119 86.6694 71.6711C86.6344 71.7304 86.6154 71.7975 86.614 71.8662C86.6455 72.1506 86.5627 72.4359 86.3839 72.6598C86.2051 72.8838 85.9446 73.0284 85.6592 73.062C85.3739 73.0957 85.0867 73.0157 84.8602 72.8395C84.6338 72.6634 84.4864 72.4052 84.4503 72.1214L83.7877 72.507C84.6391 73.5066 84.0721 75.0398 83.0913 75.7105C81.9943 76.4606 80.3734 76.5908 79.1369 76.1246C78.8336 76.0206 78.5551 75.8556 78.3187 75.6397C78.0824 75.4237 77.8933 75.1616 77.7632 74.8697C77.6427 74.6059 77.6083 74.3112 77.6649 74.027C77.7215 73.7427 77.8663 73.4834 78.0788 73.2854C78.2629 73.1043 78.5105 73.0015 78.7693 72.9987C79.0281 72.996 79.2779 73.0935 79.4658 73.2707C79.6706 73.4788 79.8208 73.7338 79.9032 74.0133C79.9857 74.2928 79.9978 74.5882 79.9386 74.8735C79.8111 75.6674 79.3703 76.3994 78.9603 77.0775C78.4921 77.8501 77.9626 78.5843 77.3768 79.2729C77.0485 79.6597 77.6149 80.2172 77.9467 79.8263Z" fill="#161618"/>
<path d="M85.0124 98.6671C85.081 98.7373 85.1439 98.8128 85.2006 98.8929L94.0164 98.6782L95.0449 96.807L98.084 97.9833L96.5866 101.472C96.4657 101.754 96.2562 101.989 95.9895 102.142C95.7229 102.295 95.4136 102.358 95.1079 102.321L85.1477 101.124C84.9127 101.42 84.5928 101.638 84.2304 101.748C83.8681 101.859 83.4804 101.857 83.1191 101.743C82.7578 101.629 82.4398 101.408 82.2076 101.11C81.9754 100.812 81.84 100.45 81.8192 100.073C81.7985 99.6965 81.8934 99.3223 82.0915 99.0005C82.2895 98.6788 82.5813 98.4246 82.9279 98.272C83.2746 98.1193 83.6597 98.0754 84.032 98.146C84.4044 98.2165 84.7463 98.3983 85.0124 98.6671Z" fill="#FFB7B7"/>
<path d="M113.75 151.973H110.852L109.473 140.841L113.751 140.841L113.75 151.973Z" fill="#FFB7B7"/>
<path d="M114.491 154.771L105.145 154.77V154.653C105.145 153.692 105.528 152.771 106.21 152.092C106.892 151.412 107.818 151.031 108.783 151.031H108.783L114.491 151.031L114.491 154.771Z" fill="#2F2E41"/>
<path d="M87.4312 151.909L84.7656 150.775L87.8896 139.999L91.8237 141.672L87.4312 151.909Z" fill="#FFB7B7"/>
<path d="M87.0053 154.771L78.4102 151.115L78.4566 151.007C78.8357 150.123 79.5516 149.426 80.447 149.068C81.3424 148.71 82.3439 148.721 83.2312 149.099L83.2314 149.099L88.481 151.332L87.0053 154.771Z" fill="#2F2E41"/>
<path d="M99.6629 101.078L99.4531 104.46L105.58 105.113L111.991 105.796L110.104 100.661L99.6629 101.078Z" fill="#FFB7B7"/>
<path d="M99.2592 104.504L96.8789 87.9822L101.005 86.636L102.216 84.9814L108.113 85.3289L108.979 87.2596L112.123 88.7389L111.64 97.6739L111.992 105.148L99.2592 104.504Z" fill="#2F2E41"/>
<path d="M97.759 100.077L93.5625 98.405L93.5804 98.3306C93.5984 98.2557 95.3845 90.8244 95.6216 89.6303C95.8687 88.3861 96.7713 88.0422 96.8096 88.0282L96.8376 88.0179L98.4984 88.5212L99.2278 94.2271L97.759 100.077Z" fill="#2F2E41"/>
<path d="M89.5901 149.952L84.0039 148.812L92.9322 124.283L95.9879 115.916C95.9879 115.916 97.926 109.208 98.8016 106.612L99.33 103.129L111.839 104.507C111.839 104.507 115.333 109.616 114.272 117.943L114.752 149.239L109.166 149.525L104.486 117.96L96.2744 135.264C96.2744 135.264 93.686 142.648 91.8341 144.248L89.5901 149.952Z" fill="#2F2E41"/>
<path d="M106.821 105.669C106.92 105.666 107.018 105.672 107.116 105.685L112.951 99.1023L112.273 97.0792L115.205 95.6602L116.757 99.1253C116.882 99.4053 116.913 99.7181 116.844 100.017C116.776 100.316 116.612 100.584 116.377 100.783L108.723 107.24C108.781 107.613 108.724 107.995 108.559 108.334C108.394 108.674 108.129 108.956 107.8 109.142C107.47 109.329 107.091 109.411 106.714 109.377C106.336 109.344 105.978 109.197 105.686 108.956C105.394 108.715 105.183 108.391 105.081 108.028C104.979 107.665 104.99 107.279 105.113 106.922C105.236 106.565 105.466 106.254 105.771 106.03C106.076 105.806 106.443 105.68 106.821 105.669Z" fill="#FFB7B7"/>
<path d="M112.485 99.7433L110.051 94.042L111 90.0708L112.023 88.7839C112.098 88.752 112.179 88.7359 112.26 88.7367C112.342 88.7374 112.422 88.755 112.497 88.7883C112.874 88.9395 113.195 89.4029 113.452 90.1656L115.733 96.6357L112.485 99.7433Z" fill="#2F2E41"/>
<path d="M99.8555 82.8692V78.571C99.8555 77.0434 100.465 75.5784 101.55 74.4983C102.635 73.4182 104.106 72.8113 105.64 72.8113C107.175 72.8113 108.646 73.4182 109.731 74.4983C110.816 75.5784 111.425 77.0434 111.425 78.571V82.8692C111.425 83.0743 111.343 83.271 111.197 83.416C111.052 83.5611 110.854 83.6426 110.648 83.6429H100.633C100.427 83.6426 100.229 83.5611 100.083 83.416C99.9376 83.271 99.8557 83.0743 99.8555 82.8692Z" fill="#2F2E41"/>
<path d="M104.452 83.5427C106.795 83.5427 108.693 81.6521 108.693 79.3199C108.693 76.9878 106.795 75.0972 104.452 75.0972C102.11 75.0972 100.211 76.9878 100.211 79.3199C100.211 81.6521 102.11 83.5427 104.452 83.5427Z" fill="#FFB7B7"/>
<path d="M98.4883 78.9148C98.4897 77.7069 98.9722 76.5488 99.8301 75.6947C100.688 74.8405 101.851 74.3601 103.064 74.3587H103.928C105.141 74.3601 106.304 74.8405 107.162 75.6947C108.02 76.5488 108.502 77.7069 108.504 78.9148V79.0008H106.679L106.057 77.2657L105.932 79.0008H104.989L104.675 78.1254L104.613 79.0008H98.4883L98.4883 78.9148Z" fill="#2F2E41"/>
<path d="M104.033 84.1262C103.947 84.0107 103.896 83.8734 103.885 83.7303C103.874 83.5871 103.904 83.4438 103.972 83.3169C104.887 81.5842 106.168 78.3825 104.467 76.408L104.345 76.2661H109.282V83.6453L104.797 84.4331C104.752 84.4411 104.706 84.4451 104.66 84.4452C104.537 84.4452 104.417 84.4162 104.308 84.3608C104.199 84.3053 104.104 84.2249 104.033 84.1262Z" fill="#2F2E41"/>
<path d="M46.4492 149.541L49.0688 150.474L53.9267 140.857L50.0603 139.481L46.4492 149.541Z" fill="#9F616A"/>
<path d="M44.875 151.832L46.0883 148.452L51.2473 150.288C52.1186 150.599 52.8304 151.242 53.2265 152.075C53.6226 152.908 53.6707 153.863 53.3602 154.731L53.322 154.838L44.875 151.832Z" fill="#2F2E41"/>
<path d="M63.4809 152.121L66.2628 152.121L67.5864 141.438L63.4805 141.438L63.4809 152.121Z" fill="#9F616A"/>
<path d="M62.7734 151.217L68.2521 151.217H68.2523C68.7108 151.217 69.1648 151.307 69.5884 151.481C70.012 151.656 70.3969 151.912 70.7211 152.235C71.0453 152.558 71.3025 152.941 71.478 153.363C71.6534 153.784 71.7438 154.236 71.7438 154.693V154.806L62.7736 154.806L62.7734 151.217Z" fill="#2F2E41"/>
<path d="M57.1445 83.8664L58.3544 81.4862C58.3544 81.4862 62.8615 82.6105 63.2713 85.2113L57.1445 83.8664Z" fill="#F1F1F1"/>
<path d="M52.1493 111.083L55.4394 129.363L46.7031 144.746L51.9222 146.779L60.7721 131.868L61.9066 127.801L62.5873 149.038L67.2943 148.896L69.4523 129.066L65.991 110.631L52.1493 111.083Z" fill="#2F2E41"/>
<path d="M58.3989 115.404C53.5654 115.404 50.4965 114.484 50.4277 114.469L50.3164 114.446L52.834 102.824L52.9474 92.1037C52.9474 87.5609 55.9504 84.2117 56.3671 83.9026C56.4372 83.6269 56.567 83.3697 56.7473 83.1491C56.9277 82.9284 57.1542 82.7496 57.4111 82.6252C58.4128 82.1726 59.6368 82.7156 59.6883 82.739L63.3623 84.1105L63.3795 84.1612C63.4238 84.2912 68.2629 100.108 68.2629 100.108C68.2629 100.108 67.97 113.928 67.8679 114.381C67.8679 114.381 61.0846 115.404 58.3989 115.404Z" fill="#3F3D56"/>
<path d="M62.1101 80.737C64.8525 80.737 67.0757 78.5235 67.0757 75.7931C67.0757 73.0626 64.8525 70.8491 62.1101 70.8491C59.3677 70.8491 57.1445 73.0626 57.1445 75.7931C57.1445 78.5235 59.3677 80.737 62.1101 80.737Z" fill="#9F616A"/>
<path opacity="0.2" d="M56.5742 92.9805L65.2615 105.048L66.5443 99.4128L56.5742 92.9805Z" fill="black"/>
<path d="M83.8096 101.192C83.5653 101.384 83.2816 101.521 82.9785 101.592C82.6753 101.664 82.3601 101.668 82.0551 101.605C81.75 101.542 81.4626 101.413 81.2129 101.228C80.9633 101.042 80.7575 100.804 80.6102 100.531L73.1328 101.723L74.7527 98.1522L81.605 97.5681C82.0825 97.352 82.623 97.3179 83.1241 97.4721C83.6252 97.6263 84.0521 97.9582 84.3239 98.4049C84.5956 98.8515 84.6933 99.3819 84.5986 99.8955C84.5038 100.409 84.2231 100.87 83.8096 101.192Z" fill="#9F616A"/>
<path d="M75.1406 97.9489L77.8273 97.6865L78.5719 101.418L75.1911 101.478L75.1406 97.9489Z" fill="#F1F1F1"/>
<path d="M77.3404 102.718L64.182 101.552L57.5379 91.0314L57.5174 90.9385C57.3288 90.079 57.4609 89.1807 57.8889 88.4111C58.3168 87.6415 59.0115 87.0533 59.8432 86.7563C60.6748 86.4593 61.5866 86.4739 62.4083 86.7972C63.23 87.1205 63.9054 87.7305 64.3085 88.5133L68.2087 96.088L76.0802 97.2726L77.3404 102.718Z" fill="#3F3D56"/>
<path d="M57.8818 80.0854L62.0032 80.2327C62.2545 80.2417 62.9363 77.5422 63.0256 76.9822C63.0961 76.6177 63.2975 76.2911 63.5922 76.0636C63.8869 75.8361 64.2546 75.7231 64.6269 75.7458C64.9354 75.7749 65.7133 75.201 66.5161 74.5215C68.0402 73.2314 67.9609 70.8084 66.2867 69.7182C66.241 69.6884 66.196 69.6612 66.152 69.6366C65.0958 69.048 63.8602 68.8504 62.65 68.8353C61.5528 68.8217 60.4245 68.9591 59.458 69.4762C57.7251 70.4031 56.8029 72.4288 56.7219 74.3856C56.6409 76.3425 57.271 78.256 57.986 80.0806" fill="#2F2E41"/>
<path d="M161.198 155H0.715818C0.658579 155 0.603685 154.977 0.563211 154.937C0.522738 154.897 0.5 154.842 0.5 154.785C0.5 154.728 0.522738 154.673 0.563211 154.633C0.603685 154.593 0.658579 154.57 0.715818 154.57H161.284C161.341 154.57 161.396 154.593 161.437 154.633C161.477 154.673 161.5 154.728 161.5 154.785C161.5 154.904 161.318 155 161.198 155Z" fill="#CBCBCB"/>
</g>
<defs>
<clipPath id="clip0_3669_4990">
<rect width="161" height="155" fill="white" transform="translate(0.5)"/>
</clipPath>
</defs>
</svg>
